<?xml version="1.0" encoding="utf-8" standalone="no"?>
<!DOCTYPE svg PUBLIC "-//W3C//DTD SVG 1.1//EN"
  "http://www.w3.org/Graphics/SVG/1.1/DTD/svg11.dtd">
<svg xmlns:xlink="http://www.w3.org/1999/xlink" width="648pt" height="360pt" viewBox="0 0 648 360" xmlns="http://www.w3.org/2000/svg" version="1.1">
 <metadata>
  <rdf:RDF xmlns:dc="http://purl.org/dc/elements/1.1/" xmlns:cc="http://creativecommons.org/ns#" xmlns:rdf="http://www.w3.org/1999/02/22-rdf-syntax-ns#">
   <cc:Work>
    <dc:type rdf:resource="http://purl.org/dc/dcmitype/StillImage"/>
    <dc:date>2022-11-22T21:24:37.980289</dc:date>
    <dc:format>image/svg+xml</dc:format>
    <dc:creator>
     <cc:Agent>
      <dc:title>Matplotlib v3.6.1, https://matplotlib.org/</dc:title>
     </cc:Agent>
    </dc:creator>
   </cc:Work>
  </rdf:RDF>
 </metadata>
 <defs>
  <style type="text/css">*{stroke-linejoin: round; stroke-linecap: butt}</style>
 </defs>
 <g id="figure_1">
  <g id="patch_1">
   <path d="M 0 360 
L 648 360 
L 648 0 
L 0 0 
z
" style="fill: #ffffff"/>
  </g>
  <g id="axes_1">
   <g id="patch_2">
    <path d="M 81 320.4 
L 583.2 320.4 
L 583.2 43.2 
L 81 43.2 
z
" style="fill: #ffffff"/>
   </g>
   <g id="matplotlib.axis_1">
    <g id="xtick_1">
     <g id="line2d_1">
      <defs>
       <path id="m9450fbf01a" d="M 0 0 
L 0 3.5 
" style="stroke: #000000; stroke-width: 0.8"/>
      </defs>
      <g>
       <use xlink:href="#m9450fbf01a" x="150.268966" y="320.4" style="stroke: #000000; stroke-width: 0.8"/>
      </g>
     </g>
     <g id="text_1">
      <!-- 2000 -->
      <g transform="translate(137.543966 334.998438) scale(0.1 -0.1)">
       <defs>
        <path id="DejaVuSans-32" d="M 1228 531 
L 3431 531 
L 3431 0 
L 469 0 
L 469 531 
Q 828 903 1448 1529 
Q 2069 2156 2228 2338 
Q 2531 2678 2651 2914 
Q 2772 3150 2772 3378 
Q 2772 3750 2511 3984 
Q 2250 4219 1831 4219 
Q 1534 4219 1204 4116 
Q 875 4013 500 3803 
L 500 4441 
Q 881 4594 1212 4672 
Q 1544 4750 1819 4750 
Q 2544 4750 2975 4387 
Q 3406 4025 3406 3419 
Q 3406 3131 3298 2873 
Q 3191 2616 2906 2266 
Q 2828 2175 2409 1742 
Q 1991 1309 1228 531 
z
" transform="scale(0.015625)"/>
        <path id="DejaVuSans-30" d="M 2034 4250 
Q 1547 4250 1301 3770 
Q 1056 3291 1056 2328 
Q 1056 1369 1301 889 
Q 1547 409 2034 409 
Q 2525 409 2770 889 
Q 3016 1369 3016 2328 
Q 3016 3291 2770 3770 
Q 2525 4250 2034 4250 
z
M 2034 4750 
Q 2819 4750 3233 4129 
Q 3647 3509 3647 2328 
Q 3647 1150 3233 529 
Q 2819 -91 2034 -91 
Q 1250 -91 836 529 
Q 422 1150 422 2328 
Q 422 3509 836 4129 
Q 1250 4750 2034 4750 
z
" transform="scale(0.015625)"/>
       </defs>
       <use xlink:href="#DejaVuSans-32"/>
       <use xlink:href="#DejaVuSans-30" x="63.623047"/>
       <use xlink:href="#DejaVuSans-30" x="127.246094"/>
       <use xlink:href="#DejaVuSans-30" x="190.869141"/>
      </g>
     </g>
    </g>
    <g id="xtick_2">
     <g id="line2d_2">
      <g>
       <use xlink:href="#m9450fbf01a" x="236.855172" y="320.4" style="stroke: #000000; stroke-width: 0.8"/>
      </g>
     </g>
     <g id="text_2">
      <!-- 2500 -->
      <g transform="translate(224.130172 334.998438) scale(0.1 -0.1)">
       <defs>
        <path id="DejaVuSans-35" d="M 691 4666 
L 3169 4666 
L 3169 4134 
L 1269 4134 
L 1269 2991 
Q 1406 3038 1543 3061 
Q 1681 3084 1819 3084 
Q 2600 3084 3056 2656 
Q 3513 2228 3513 1497 
Q 3513 744 3044 326 
Q 2575 -91 1722 -91 
Q 1428 -91 1123 -41 
Q 819 9 494 109 
L 494 744 
Q 775 591 1075 516 
Q 1375 441 1709 441 
Q 2250 441 2565 725 
Q 2881 1009 2881 1497 
Q 2881 1984 2565 2268 
Q 2250 2553 1709 2553 
Q 1456 2553 1204 2497 
Q 953 2441 691 2322 
L 691 4666 
z
" transform="scale(0.015625)"/>
       </defs>
       <use xlink:href="#DejaVuSans-32"/>
       <use xlink:href="#DejaVuSans-35" x="63.623047"/>
       <use xlink:href="#DejaVuSans-30" x="127.246094"/>
       <use xlink:href="#DejaVuSans-30" x="190.869141"/>
      </g>
     </g>
    </g>
    <g id="xtick_3">
     <g id="line2d_3">
      <g>
       <use xlink:href="#m9450fbf01a" x="323.441379" y="320.4" style="stroke: #000000; stroke-width: 0.8"/>
      </g>
     </g>
     <g id="text_3">
      <!-- 3000 -->
      <g transform="translate(310.716379 334.998438) scale(0.1 -0.1)">
       <defs>
        <path id="DejaVuSans-33" d="M 2597 2516 
Q 3050 2419 3304 2112 
Q 3559 1806 3559 1356 
Q 3559 666 3084 287 
Q 2609 -91 1734 -91 
Q 1441 -91 1130 -33 
Q 819 25 488 141 
L 488 750 
Q 750 597 1062 519 
Q 1375 441 1716 441 
Q 2309 441 2620 675 
Q 2931 909 2931 1356 
Q 2931 1769 2642 2001 
Q 2353 2234 1838 2234 
L 1294 2234 
L 1294 2753 
L 1863 2753 
Q 2328 2753 2575 2939 
Q 2822 3125 2822 3475 
Q 2822 3834 2567 4026 
Q 2313 4219 1838 4219 
Q 1578 4219 1281 4162 
Q 984 4106 628 3988 
L 628 4550 
Q 988 4650 1302 4700 
Q 1616 4750 1894 4750 
Q 2613 4750 3031 4423 
Q 3450 4097 3450 3541 
Q 3450 3153 3228 2886 
Q 3006 2619 2597 2516 
z
" transform="scale(0.015625)"/>
       </defs>
       <use xlink:href="#DejaVuSans-33"/>
       <use xlink:href="#DejaVuSans-30" x="63.623047"/>
       <use xlink:href="#DejaVuSans-30" x="127.246094"/>
       <use xlink:href="#DejaVuSans-30" x="190.869141"/>
      </g>
     </g>
    </g>
    <g id="xtick_4">
     <g id="line2d_4">
      <g>
       <use xlink:href="#m9450fbf01a" x="410.027586" y="320.4" style="stroke: #000000; stroke-width: 0.8"/>
      </g>
     </g>
     <g id="text_4">
      <!-- 3500 -->
      <g transform="translate(397.302586 334.998438) scale(0.1 -0.1)">
       <use xlink:href="#DejaVuSans-33"/>
       <use xlink:href="#DejaVuSans-35" x="63.623047"/>
       <use xlink:href="#DejaVuSans-30" x="127.246094"/>
       <use xlink:href="#DejaVuSans-30" x="190.869141"/>
      </g>
     </g>
    </g>
    <g id="xtick_5">
     <g id="line2d_5">
      <g>
       <use xlink:href="#m9450fbf01a" x="496.613793" y="320.4" style="stroke: #000000; stroke-width: 0.8"/>
      </g>
     </g>
     <g id="text_5">
      <!-- 4000 -->
      <g transform="translate(483.888793 334.998438) scale(0.1 -0.1)">
       <defs>
        <path id="DejaVuSans-34" d="M 2419 4116 
L 825 1625 
L 2419 1625 
L 2419 4116 
z
M 2253 4666 
L 3047 4666 
L 3047 1625 
L 3713 1625 
L 3713 1100 
L 3047 1100 
L 3047 0 
L 2419 0 
L 2419 1100 
L 313 1100 
L 313 1709 
L 2253 4666 
z
" transform="scale(0.015625)"/>
       </defs>
       <use xlink:href="#DejaVuSans-34"/>
       <use xlink:href="#DejaVuSans-30" x="63.623047"/>
       <use xlink:href="#DejaVuSans-30" x="127.246094"/>
       <use xlink:href="#DejaVuSans-30" x="190.869141"/>
      </g>
     </g>
    </g>
    <g id="xtick_6">
     <g id="line2d_6">
      <g>
       <use xlink:href="#m9450fbf01a" x="583.2" y="320.4" style="stroke: #000000; stroke-width: 0.8"/>
      </g>
     </g>
     <g id="text_6">
      <!-- 4500 -->
      <g transform="translate(570.475 334.998438) scale(0.1 -0.1)">
       <use xlink:href="#DejaVuSans-34"/>
       <use xlink:href="#DejaVuSans-35" x="63.623047"/>
       <use xlink:href="#DejaVuSans-30" x="127.246094"/>
       <use xlink:href="#DejaVuSans-30" x="190.869141"/>
      </g>
     </g>
    </g>
    <g id="text_7">
     <!-- Frequency (Hz) -->
     <g transform="translate(271.7725 353.235625) scale(0.16 -0.16)">
      <defs>
       <path id="DejaVuSans-46" d="M 628 4666 
L 3309 4666 
L 3309 4134 
L 1259 4134 
L 1259 2759 
L 3109 2759 
L 3109 2228 
L 1259 2228 
L 1259 0 
L 628 0 
L 628 4666 
z
" transform="scale(0.015625)"/>
       <path id="DejaVuSans-72" d="M 2631 2963 
Q 2534 3019 2420 3045 
Q 2306 3072 2169 3072 
Q 1681 3072 1420 2755 
Q 1159 2438 1159 1844 
L 1159 0 
L 581 0 
L 581 3500 
L 1159 3500 
L 1159 2956 
Q 1341 3275 1631 3429 
Q 1922 3584 2338 3584 
Q 2397 3584 2469 3576 
Q 2541 3569 2628 3553 
L 2631 2963 
z
" transform="scale(0.015625)"/>
       <path id="DejaVuSans-65" d="M 3597 1894 
L 3597 1613 
L 953 1613 
Q 991 1019 1311 708 
Q 1631 397 2203 397 
Q 2534 397 2845 478 
Q 3156 559 3463 722 
L 3463 178 
Q 3153 47 2828 -22 
Q 2503 -91 2169 -91 
Q 1331 -91 842 396 
Q 353 884 353 1716 
Q 353 2575 817 3079 
Q 1281 3584 2069 3584 
Q 2775 3584 3186 3129 
Q 3597 2675 3597 1894 
z
M 3022 2063 
Q 3016 2534 2758 2815 
Q 2500 3097 2075 3097 
Q 1594 3097 1305 2825 
Q 1016 2553 972 2059 
L 3022 2063 
z
" transform="scale(0.015625)"/>
       <path id="DejaVuSans-71" d="M 947 1747 
Q 947 1113 1208 752 
Q 1469 391 1925 391 
Q 2381 391 2643 752 
Q 2906 1113 2906 1747 
Q 2906 2381 2643 2742 
Q 2381 3103 1925 3103 
Q 1469 3103 1208 2742 
Q 947 2381 947 1747 
z
M 2906 525 
Q 2725 213 2448 61 
Q 2172 -91 1784 -91 
Q 1150 -91 751 415 
Q 353 922 353 1747 
Q 353 2572 751 3078 
Q 1150 3584 1784 3584 
Q 2172 3584 2448 3432 
Q 2725 3281 2906 2969 
L 2906 3500 
L 3481 3500 
L 3481 -1331 
L 2906 -1331 
L 2906 525 
z
" transform="scale(0.015625)"/>
       <path id="DejaVuSans-75" d="M 544 1381 
L 544 3500 
L 1119 3500 
L 1119 1403 
Q 1119 906 1312 657 
Q 1506 409 1894 409 
Q 2359 409 2629 706 
Q 2900 1003 2900 1516 
L 2900 3500 
L 3475 3500 
L 3475 0 
L 2900 0 
L 2900 538 
Q 2691 219 2414 64 
Q 2138 -91 1772 -91 
Q 1169 -91 856 284 
Q 544 659 544 1381 
z
M 1991 3584 
L 1991 3584 
z
" transform="scale(0.015625)"/>
       <path id="DejaVuSans-6e" d="M 3513 2113 
L 3513 0 
L 2938 0 
L 2938 2094 
Q 2938 2591 2744 2837 
Q 2550 3084 2163 3084 
Q 1697 3084 1428 2787 
Q 1159 2491 1159 1978 
L 1159 0 
L 581 0 
L 581 3500 
L 1159 3500 
L 1159 2956 
Q 1366 3272 1645 3428 
Q 1925 3584 2291 3584 
Q 2894 3584 3203 3211 
Q 3513 2838 3513 2113 
z
" transform="scale(0.015625)"/>
       <path id="DejaVuSans-63" d="M 3122 3366 
L 3122 2828 
Q 2878 2963 2633 3030 
Q 2388 3097 2138 3097 
Q 1578 3097 1268 2742 
Q 959 2388 959 1747 
Q 959 1106 1268 751 
Q 1578 397 2138 397 
Q 2388 397 2633 464 
Q 2878 531 3122 666 
L 3122 134 
Q 2881 22 2623 -34 
Q 2366 -91 2075 -91 
Q 1284 -91 818 406 
Q 353 903 353 1747 
Q 353 2603 823 3093 
Q 1294 3584 2113 3584 
Q 2378 3584 2631 3529 
Q 2884 3475 3122 3366 
z
" transform="scale(0.015625)"/>
       <path id="DejaVuSans-79" d="M 2059 -325 
Q 1816 -950 1584 -1140 
Q 1353 -1331 966 -1331 
L 506 -1331 
L 506 -850 
L 844 -850 
Q 1081 -850 1212 -737 
Q 1344 -625 1503 -206 
L 1606 56 
L 191 3500 
L 800 3500 
L 1894 763 
L 2988 3500 
L 3597 3500 
L 2059 -325 
z
" transform="scale(0.015625)"/>
       <path id="DejaVuSans-20" transform="scale(0.015625)"/>
       <path id="DejaVuSans-28" d="M 1984 4856 
Q 1566 4138 1362 3434 
Q 1159 2731 1159 2009 
Q 1159 1288 1364 580 
Q 1569 -128 1984 -844 
L 1484 -844 
Q 1016 -109 783 600 
Q 550 1309 550 2009 
Q 550 2706 781 3412 
Q 1013 4119 1484 4856 
L 1984 4856 
z
" transform="scale(0.015625)"/>
       <path id="DejaVuSans-48" d="M 628 4666 
L 1259 4666 
L 1259 2753 
L 3553 2753 
L 3553 4666 
L 4184 4666 
L 4184 0 
L 3553 0 
L 3553 2222 
L 1259 2222 
L 1259 0 
L 628 0 
L 628 4666 
z
" transform="scale(0.015625)"/>
       <path id="DejaVuSans-7a" d="M 353 3500 
L 3084 3500 
L 3084 2975 
L 922 459 
L 3084 459 
L 3084 0 
L 275 0 
L 275 525 
L 2438 3041 
L 353 3041 
L 353 3500 
z
" transform="scale(0.015625)"/>
       <path id="DejaVuSans-29" d="M 513 4856 
L 1013 4856 
Q 1481 4119 1714 3412 
Q 1947 2706 1947 2009 
Q 1947 1309 1714 600 
Q 1481 -109 1013 -844 
L 513 -844 
Q 928 -128 1133 580 
Q 1338 1288 1338 2009 
Q 1338 2731 1133 3434 
Q 928 4138 513 4856 
z
" transform="scale(0.015625)"/>
      </defs>
      <use xlink:href="#DejaVuSans-46"/>
      <use xlink:href="#DejaVuSans-72" x="50.269531"/>
      <use xlink:href="#DejaVuSans-65" x="89.132812"/>
      <use xlink:href="#DejaVuSans-71" x="150.65625"/>
      <use xlink:href="#DejaVuSans-75" x="214.132812"/>
      <use xlink:href="#DejaVuSans-65" x="277.511719"/>
      <use xlink:href="#DejaVuSans-6e" x="339.035156"/>
      <use xlink:href="#DejaVuSans-63" x="402.414062"/>
      <use xlink:href="#DejaVuSans-79" x="457.394531"/>
      <use xlink:href="#DejaVuSans-20" x="516.574219"/>
      <use xlink:href="#DejaVuSans-28" x="548.361328"/>
      <use xlink:href="#DejaVuSans-48" x="587.375"/>
      <use xlink:href="#DejaVuSans-7a" x="662.570312"/>
      <use xlink:href="#DejaVuSans-29" x="715.060547"/>
     </g>
    </g>
   </g>
   <g id="matplotlib.axis_2">
    <g id="ytick_1">
     <g id="line2d_7">
      <defs>
       <path id="m16fd5f28c8" d="M 0 0 
L -3.5 0 
" style="stroke: #000000; stroke-width: 0.8"/>
      </defs>
      <g>
       <use xlink:href="#m16fd5f28c8" x="81" y="297.3" style="stroke: #000000; stroke-width: 0.8"/>
      </g>
     </g>
     <g id="text_8">
      <!-- 0.0 -->
      <g transform="translate(58.096875 301.099219) scale(0.1 -0.1)">
       <defs>
        <path id="DejaVuSans-2e" d="M 684 794 
L 1344 794 
L 1344 0 
L 684 0 
L 684 794 
z
" transform="scale(0.015625)"/>
       </defs>
       <use xlink:href="#DejaVuSans-30"/>
       <use xlink:href="#DejaVuSans-2e" x="63.623047"/>
       <use xlink:href="#DejaVuSans-30" x="95.410156"/>
      </g>
     </g>
    </g>
    <g id="ytick_2">
     <g id="line2d_8">
      <g>
       <use xlink:href="#m16fd5f28c8" x="81" y="251.1" style="stroke: #000000; stroke-width: 0.8"/>
      </g>
     </g>
     <g id="text_9">
      <!-- 0.2 -->
      <g transform="translate(58.096875 254.899219) scale(0.1 -0.1)">
       <use xlink:href="#DejaVuSans-30"/>
       <use xlink:href="#DejaVuSans-2e" x="63.623047"/>
       <use xlink:href="#DejaVuSans-32" x="95.410156"/>
      </g>
     </g>
    </g>
    <g id="ytick_3">
     <g id="line2d_9">
      <g>
       <use xlink:href="#m16fd5f28c8" x="81" y="204.9" style="stroke: #000000; stroke-width: 0.8"/>
      </g>
     </g>
     <g id="text_10">
      <!-- 0.4 -->
      <g transform="translate(58.096875 208.699219) scale(0.1 -0.1)">
       <use xlink:href="#DejaVuSans-30"/>
       <use xlink:href="#DejaVuSans-2e" x="63.623047"/>
       <use xlink:href="#DejaVuSans-34" x="95.410156"/>
      </g>
     </g>
    </g>
    <g id="ytick_4">
     <g id="line2d_10">
      <g>
       <use xlink:href="#m16fd5f28c8" x="81" y="158.7" style="stroke: #000000; stroke-width: 0.8"/>
      </g>
     </g>
     <g id="text_11">
      <!-- 0.6 -->
      <g transform="translate(58.096875 162.499219) scale(0.1 -0.1)">
       <defs>
        <path id="DejaVuSans-36" d="M 2113 2584 
Q 1688 2584 1439 2293 
Q 1191 2003 1191 1497 
Q 1191 994 1439 701 
Q 1688 409 2113 409 
Q 2538 409 2786 701 
Q 3034 994 3034 1497 
Q 3034 2003 2786 2293 
Q 2538 2584 2113 2584 
z
M 3366 4563 
L 3366 3988 
Q 3128 4100 2886 4159 
Q 2644 4219 2406 4219 
Q 1781 4219 1451 3797 
Q 1122 3375 1075 2522 
Q 1259 2794 1537 2939 
Q 1816 3084 2150 3084 
Q 2853 3084 3261 2657 
Q 3669 2231 3669 1497 
Q 3669 778 3244 343 
Q 2819 -91 2113 -91 
Q 1303 -91 875 529 
Q 447 1150 447 2328 
Q 447 3434 972 4092 
Q 1497 4750 2381 4750 
Q 2619 4750 2861 4703 
Q 3103 4656 3366 4563 
z
" transform="scale(0.015625)"/>
       </defs>
       <use xlink:href="#DejaVuSans-30"/>
       <use xlink:href="#DejaVuSans-2e" x="63.623047"/>
       <use xlink:href="#DejaVuSans-36" x="95.410156"/>
      </g>
     </g>
    </g>
    <g id="ytick_5">
     <g id="line2d_11">
      <g>
       <use xlink:href="#m16fd5f28c8" x="81" y="112.5" style="stroke: #000000; stroke-width: 0.8"/>
      </g>
     </g>
     <g id="text_12">
      <!-- 0.8 -->
      <g transform="translate(58.096875 116.299219) scale(0.1 -0.1)">
       <defs>
        <path id="DejaVuSans-38" d="M 2034 2216 
Q 1584 2216 1326 1975 
Q 1069 1734 1069 1313 
Q 1069 891 1326 650 
Q 1584 409 2034 409 
Q 2484 409 2743 651 
Q 3003 894 3003 1313 
Q 3003 1734 2745 1975 
Q 2488 2216 2034 2216 
z
M 1403 2484 
Q 997 2584 770 2862 
Q 544 3141 544 3541 
Q 544 4100 942 4425 
Q 1341 4750 2034 4750 
Q 2731 4750 3128 4425 
Q 3525 4100 3525 3541 
Q 3525 3141 3298 2862 
Q 3072 2584 2669 2484 
Q 3125 2378 3379 2068 
Q 3634 1759 3634 1313 
Q 3634 634 3220 271 
Q 2806 -91 2034 -91 
Q 1263 -91 848 271 
Q 434 634 434 1313 
Q 434 1759 690 2068 
Q 947 2378 1403 2484 
z
M 1172 3481 
Q 1172 3119 1398 2916 
Q 1625 2713 2034 2713 
Q 2441 2713 2670 2916 
Q 2900 3119 2900 3481 
Q 2900 3844 2670 4047 
Q 2441 4250 2034 4250 
Q 1625 4250 1398 4047 
Q 1172 3844 1172 3481 
z
" transform="scale(0.015625)"/>
       </defs>
       <use xlink:href="#DejaVuSans-30"/>
       <use xlink:href="#DejaVuSans-2e" x="63.623047"/>
       <use xlink:href="#DejaVuSans-38" x="95.410156"/>
      </g>
     </g>
    </g>
    <g id="ytick_6">
     <g id="line2d_12">
      <g>
       <use xlink:href="#m16fd5f28c8" x="81" y="66.3" style="stroke: #000000; stroke-width: 0.8"/>
      </g>
     </g>
     <g id="text_13">
      <!-- 1.0 -->
      <g transform="translate(58.096875 70.099219) scale(0.1 -0.1)">
       <defs>
        <path id="DejaVuSans-31" d="M 794 531 
L 1825 531 
L 1825 4091 
L 703 3866 
L 703 4441 
L 1819 4666 
L 2450 4666 
L 2450 531 
L 3481 531 
L 3481 0 
L 794 0 
L 794 531 
z
" transform="scale(0.015625)"/>
       </defs>
       <use xlink:href="#DejaVuSans-31"/>
       <use xlink:href="#DejaVuSans-2e" x="63.623047"/>
       <use xlink:href="#DejaVuSans-30" x="95.410156"/>
      </g>
     </g>
    </g>
    <g id="text_14">
     <!-- $\frac{ \mathrm{Measured \ Pressure \ Amplitude}}{\mathrm{Forward\ Pressure\ Wave\ Amplitude}}$ -->
     <g transform="translate(45.136875 279.8) rotate(-90) scale(0.16 -0.16)">
      <defs>
       <path id="DejaVuSans-4d" d="M 628 4666 
L 1569 4666 
L 2759 1491 
L 3956 4666 
L 4897 4666 
L 4897 0 
L 4281 0 
L 4281 4097 
L 3078 897 
L 2444 897 
L 1241 4097 
L 1241 0 
L 628 0 
L 628 4666 
z
" transform="scale(0.015625)"/>
       <path id="DejaVuSans-61" d="M 2194 1759 
Q 1497 1759 1228 1600 
Q 959 1441 959 1056 
Q 959 750 1161 570 
Q 1363 391 1709 391 
Q 2188 391 2477 730 
Q 2766 1069 2766 1631 
L 2766 1759 
L 2194 1759 
z
M 3341 1997 
L 3341 0 
L 2766 0 
L 2766 531 
Q 2569 213 2275 61 
Q 1981 -91 1556 -91 
Q 1019 -91 701 211 
Q 384 513 384 1019 
Q 384 1609 779 1909 
Q 1175 2209 1959 2209 
L 2766 2209 
L 2766 2266 
Q 2766 2663 2505 2880 
Q 2244 3097 1772 3097 
Q 1472 3097 1187 3025 
Q 903 2953 641 2809 
L 641 3341 
Q 956 3463 1253 3523 
Q 1550 3584 1831 3584 
Q 2591 3584 2966 3190 
Q 3341 2797 3341 1997 
z
" transform="scale(0.015625)"/>
       <path id="DejaVuSans-73" d="M 2834 3397 
L 2834 2853 
Q 2591 2978 2328 3040 
Q 2066 3103 1784 3103 
Q 1356 3103 1142 2972 
Q 928 2841 928 2578 
Q 928 2378 1081 2264 
Q 1234 2150 1697 2047 
L 1894 2003 
Q 2506 1872 2764 1633 
Q 3022 1394 3022 966 
Q 3022 478 2636 193 
Q 2250 -91 1575 -91 
Q 1294 -91 989 -36 
Q 684 19 347 128 
L 347 722 
Q 666 556 975 473 
Q 1284 391 1588 391 
Q 1994 391 2212 530 
Q 2431 669 2431 922 
Q 2431 1156 2273 1281 
Q 2116 1406 1581 1522 
L 1381 1569 
Q 847 1681 609 1914 
Q 372 2147 372 2553 
Q 372 3047 722 3315 
Q 1072 3584 1716 3584 
Q 2034 3584 2315 3537 
Q 2597 3491 2834 3397 
z
" transform="scale(0.015625)"/>
       <path id="DejaVuSans-64" d="M 2906 2969 
L 2906 4863 
L 3481 4863 
L 3481 0 
L 2906 0 
L 2906 525 
Q 2725 213 2448 61 
Q 2172 -91 1784 -91 
Q 1150 -91 751 415 
Q 353 922 353 1747 
Q 353 2572 751 3078 
Q 1150 3584 1784 3584 
Q 2172 3584 2448 3432 
Q 2725 3281 2906 2969 
z
M 947 1747 
Q 947 1113 1208 752 
Q 1469 391 1925 391 
Q 2381 391 2643 752 
Q 2906 1113 2906 1747 
Q 2906 2381 2643 2742 
Q 2381 3103 1925 3103 
Q 1469 3103 1208 2742 
Q 947 2381 947 1747 
z
" transform="scale(0.015625)"/>
       <path id="DejaVuSans-50" d="M 1259 4147 
L 1259 2394 
L 2053 2394 
Q 2494 2394 2734 2622 
Q 2975 2850 2975 3272 
Q 2975 3691 2734 3919 
Q 2494 4147 2053 4147 
L 1259 4147 
z
M 628 4666 
L 2053 4666 
Q 2838 4666 3239 4311 
Q 3641 3956 3641 3272 
Q 3641 2581 3239 2228 
Q 2838 1875 2053 1875 
L 1259 1875 
L 1259 0 
L 628 0 
L 628 4666 
z
" transform="scale(0.015625)"/>
       <path id="DejaVuSans-41" d="M 2188 4044 
L 1331 1722 
L 3047 1722 
L 2188 4044 
z
M 1831 4666 
L 2547 4666 
L 4325 0 
L 3669 0 
L 3244 1197 
L 1141 1197 
L 716 0 
L 50 0 
L 1831 4666 
z
" transform="scale(0.015625)"/>
       <path id="DejaVuSans-6d" d="M 3328 2828 
Q 3544 3216 3844 3400 
Q 4144 3584 4550 3584 
Q 5097 3584 5394 3201 
Q 5691 2819 5691 2113 
L 5691 0 
L 5113 0 
L 5113 2094 
Q 5113 2597 4934 2840 
Q 4756 3084 4391 3084 
Q 3944 3084 3684 2787 
Q 3425 2491 3425 1978 
L 3425 0 
L 2847 0 
L 2847 2094 
Q 2847 2600 2669 2842 
Q 2491 3084 2119 3084 
Q 1678 3084 1418 2786 
Q 1159 2488 1159 1978 
L 1159 0 
L 581 0 
L 581 3500 
L 1159 3500 
L 1159 2956 
Q 1356 3278 1631 3431 
Q 1906 3584 2284 3584 
Q 2666 3584 2933 3390 
Q 3200 3197 3328 2828 
z
" transform="scale(0.015625)"/>
       <path id="DejaVuSans-70" d="M 1159 525 
L 1159 -1331 
L 581 -1331 
L 581 3500 
L 1159 3500 
L 1159 2969 
Q 1341 3281 1617 3432 
Q 1894 3584 2278 3584 
Q 2916 3584 3314 3078 
Q 3713 2572 3713 1747 
Q 3713 922 3314 415 
Q 2916 -91 2278 -91 
Q 1894 -91 1617 61 
Q 1341 213 1159 525 
z
M 3116 1747 
Q 3116 2381 2855 2742 
Q 2594 3103 2138 3103 
Q 1681 3103 1420 2742 
Q 1159 2381 1159 1747 
Q 1159 1113 1420 752 
Q 1681 391 2138 391 
Q 2594 391 2855 752 
Q 3116 1113 3116 1747 
z
" transform="scale(0.015625)"/>
       <path id="DejaVuSans-6c" d="M 603 4863 
L 1178 4863 
L 1178 0 
L 603 0 
L 603 4863 
z
" transform="scale(0.015625)"/>
       <path id="DejaVuSans-69" d="M 603 3500 
L 1178 3500 
L 1178 0 
L 603 0 
L 603 3500 
z
M 603 4863 
L 1178 4863 
L 1178 4134 
L 603 4134 
L 603 4863 
z
" transform="scale(0.015625)"/>
       <path id="DejaVuSans-74" d="M 1172 4494 
L 1172 3500 
L 2356 3500 
L 2356 3053 
L 1172 3053 
L 1172 1153 
Q 1172 725 1289 603 
Q 1406 481 1766 481 
L 2356 481 
L 2356 0 
L 1766 0 
Q 1100 0 847 248 
Q 594 497 594 1153 
L 594 3053 
L 172 3053 
L 172 3500 
L 594 3500 
L 594 4494 
L 1172 4494 
z
" transform="scale(0.015625)"/>
       <path id="DejaVuSans-6f" d="M 1959 3097 
Q 1497 3097 1228 2736 
Q 959 2375 959 1747 
Q 959 1119 1226 758 
Q 1494 397 1959 397 
Q 2419 397 2687 759 
Q 2956 1122 2956 1747 
Q 2956 2369 2687 2733 
Q 2419 3097 1959 3097 
z
M 1959 3584 
Q 2709 3584 3137 3096 
Q 3566 2609 3566 1747 
Q 3566 888 3137 398 
Q 2709 -91 1959 -91 
Q 1206 -91 779 398 
Q 353 888 353 1747 
Q 353 2609 779 3096 
Q 1206 3584 1959 3584 
z
" transform="scale(0.015625)"/>
       <path id="DejaVuSans-77" d="M 269 3500 
L 844 3500 
L 1563 769 
L 2278 3500 
L 2956 3500 
L 3675 769 
L 4391 3500 
L 4966 3500 
L 4050 0 
L 3372 0 
L 2619 2869 
L 1863 0 
L 1184 0 
L 269 3500 
z
" transform="scale(0.015625)"/>
       <path id="DejaVuSans-57" d="M 213 4666 
L 850 4666 
L 1831 722 
L 2809 4666 
L 3519 4666 
L 4500 722 
L 5478 4666 
L 6119 4666 
L 4947 0 
L 4153 0 
L 3169 4050 
L 2175 0 
L 1381 0 
L 213 4666 
z
" transform="scale(0.015625)"/>
       <path id="DejaVuSans-76" d="M 191 3500 
L 800 3500 
L 1894 563 
L 2988 3500 
L 3597 3500 
L 2284 0 
L 1503 0 
L 191 3500 
z
" transform="scale(0.015625)"/>
      </defs>
      <use xlink:href="#DejaVuSans-4d" transform="translate(81 58.810938) scale(0.7)"/>
      <use xlink:href="#DejaVuSans-65" transform="translate(141.395508 58.810938) scale(0.7)"/>
      <use xlink:href="#DejaVuSans-61" transform="translate(184.461914 58.810938) scale(0.7)"/>
      <use xlink:href="#DejaVuSans-73" transform="translate(227.357422 58.810938) scale(0.7)"/>
      <use xlink:href="#DejaVuSans-75" transform="translate(263.827148 58.810938) scale(0.7)"/>
      <use xlink:href="#DejaVuSans-72" transform="translate(308.192383 58.810938) scale(0.7)"/>
      <use xlink:href="#DejaVuSans-65" transform="translate(336.97168 58.810938) scale(0.7)"/>
      <use xlink:href="#DejaVuSans-64" transform="translate(380.038086 58.810938) scale(0.7)"/>
      <use xlink:href="#DejaVuSans-50" transform="translate(447.200945 58.810938) scale(0.7)"/>
      <use xlink:href="#DejaVuSans-72" transform="translate(489.412859 58.810938) scale(0.7)"/>
      <use xlink:href="#DejaVuSans-65" transform="translate(518.192156 58.810938) scale(0.7)"/>
      <use xlink:href="#DejaVuSans-73" transform="translate(561.258562 58.810938) scale(0.7)"/>
      <use xlink:href="#DejaVuSans-73" transform="translate(597.728288 58.810938) scale(0.7)"/>
      <use xlink:href="#DejaVuSans-75" transform="translate(634.198015 58.810938) scale(0.7)"/>
      <use xlink:href="#DejaVuSans-72" transform="translate(678.563249 58.810938) scale(0.7)"/>
      <use xlink:href="#DejaVuSans-65" transform="translate(707.342546 58.810938) scale(0.7)"/>
      <use xlink:href="#DejaVuSans-41" transform="translate(773.138217 58.810938) scale(0.7)"/>
      <use xlink:href="#DejaVuSans-6d" transform="translate(821.023959 58.810938) scale(0.7)"/>
      <use xlink:href="#DejaVuSans-70" transform="translate(889.212436 58.810938) scale(0.7)"/>
      <use xlink:href="#DejaVuSans-6c" transform="translate(933.64603 58.810938) scale(0.7)"/>
      <use xlink:href="#DejaVuSans-69" transform="translate(953.094272 58.810938) scale(0.7)"/>
      <use xlink:href="#DejaVuSans-74" transform="translate(972.542514 58.810938) scale(0.7)"/>
      <use xlink:href="#DejaVuSans-75" transform="translate(999.988803 58.810938) scale(0.7)"/>
      <use xlink:href="#DejaVuSans-64" transform="translate(1044.354038 58.810938) scale(0.7)"/>
      <use xlink:href="#DejaVuSans-65" transform="translate(1088.787631 58.810938) scale(0.7)"/>
      <use xlink:href="#DejaVuSans-46" transform="translate(0 -40.185937) scale(0.7)"/>
      <use xlink:href="#DejaVuSans-6f" transform="translate(40.263672 -40.185937) scale(0.7)"/>
      <use xlink:href="#DejaVuSans-72" transform="translate(83.09082 -40.185937) scale(0.7)"/>
      <use xlink:href="#DejaVuSans-77" transform="translate(111.870117 -40.185937) scale(0.7)"/>
      <use xlink:href="#DejaVuSans-61" transform="translate(169.121094 -40.185937) scale(0.7)"/>
      <use xlink:href="#DejaVuSans-72" transform="translate(212.016602 -40.185937) scale(0.7)"/>
      <use xlink:href="#DejaVuSans-64" transform="translate(240.795898 -40.185937) scale(0.7)"/>
      <use xlink:href="#DejaVuSans-50" transform="translate(307.958757 -40.185937) scale(0.7)"/>
      <use xlink:href="#DejaVuSans-72" transform="translate(350.170671 -40.185937) scale(0.7)"/>
      <use xlink:href="#DejaVuSans-65" transform="translate(378.949968 -40.185937) scale(0.7)"/>
      <use xlink:href="#DejaVuSans-73" transform="translate(422.016374 -40.185937) scale(0.7)"/>
      <use xlink:href="#DejaVuSans-73" transform="translate(458.486101 -40.185937) scale(0.7)"/>
      <use xlink:href="#DejaVuSans-75" transform="translate(494.955827 -40.185937) scale(0.7)"/>
      <use xlink:href="#DejaVuSans-72" transform="translate(539.321062 -40.185937) scale(0.7)"/>
      <use xlink:href="#DejaVuSans-65" transform="translate(568.100359 -40.185937) scale(0.7)"/>
      <use xlink:href="#DejaVuSans-57" transform="translate(633.89603 -40.185937) scale(0.7)"/>
      <use xlink:href="#DejaVuSans-61" transform="translate(703.109897 -40.185937) scale(0.7)"/>
      <use xlink:href="#DejaVuSans-76" transform="translate(746.005405 -40.185937) scale(0.7)"/>
      <use xlink:href="#DejaVuSans-65" transform="translate(787.431186 -40.185937) scale(0.7)"/>
      <use xlink:href="#DejaVuSans-41" transform="translate(853.226857 -40.185937) scale(0.7)"/>
      <use xlink:href="#DejaVuSans-6d" transform="translate(901.112599 -40.185937) scale(0.7)"/>
      <use xlink:href="#DejaVuSans-70" transform="translate(969.301076 -40.185937) scale(0.7)"/>
      <use xlink:href="#DejaVuSans-6c" transform="translate(1013.73467 -40.185937) scale(0.7)"/>
      <use xlink:href="#DejaVuSans-69" transform="translate(1033.182912 -40.185937) scale(0.7)"/>
      <use xlink:href="#DejaVuSans-74" transform="translate(1052.631154 -40.185937) scale(0.7)"/>
      <use xlink:href="#DejaVuSans-75" transform="translate(1080.077443 -40.185937) scale(0.7)"/>
      <use xlink:href="#DejaVuSans-64" transform="translate(1124.442677 -40.185937) scale(0.7)"/>
      <use xlink:href="#DejaVuSans-65" transform="translate(1168.876271 -40.185937) scale(0.7)"/>
      <path d="M 0 19.253125 
L 0 25.503125 
L 1211.942677 25.503125 
L 1211.942677 19.253125 
L 0 19.253125 
z
"/>
     </g>
    </g>
   </g>
   <g id="line2d_13">
    <path d="M 46.713315 -1 
L 65.000186 16.786372 
L 85.541659 37.083056 
L 107.452563 59.066841 
L 130.732898 82.746436 
L 160.860391 113.73698 
L 204.682199 158.835503 
L 221.115377 175.405432 
L 233.440261 187.529187 
L 243.026281 196.682394 
L 251.24287 204.260902 
L 258.090028 210.330509 
L 264.937185 216.116934 
L 270.414911 220.495502 
L 275.892637 224.604922 
L 281.370363 228.394836 
L 285.478658 230.993323 
L 289.586952 233.353456 
L 293.695247 235.447416 
L 297.803541 237.246961 
L 301.911836 238.724707 
L 304.650699 239.518631 
L 307.389562 240.151958 
L 310.128425 240.619353 
L 312.867288 240.916774 
L 315.606151 241.041643 
L 318.345014 240.992963 
L 321.083877 240.771369 
L 323.82274 240.379099 
L 326.561603 239.819897 
L 329.300466 239.098857 
L 333.40876 237.727747 
L 337.517055 236.03138 
L 341.625349 234.037186 
L 345.733644 231.773733 
L 349.841938 229.269373 
L 353.950233 226.551254 
L 359.427959 222.638008 
L 364.905685 218.443382 
L 371.752842 212.874857 
L 378.6 207.015342 
L 386.816589 199.685763 
L 396.40261 190.827593 
L 408.727493 179.104234 
L 425.160671 163.128715 
L 484.046226 105.576432 
L 500.479404 89.93907 
L 515.54315 75.89391 
L 529.237465 63.404511 
L 542.93178 51.211762 
L 555.256664 40.514523 
L 567.581547 30.098114 
L 579.906431 19.979777 
L 592.231314 10.175741 
L 603.186766 1.737308 
L 606.818101 -1 
L 606.818101 -1 
" clip-path="url(#pe3018158d9)" style="fill: none; stroke: #1f77b4; stroke-width: 1.5; stroke-linecap: square"/>
   </g>
   <g id="line2d_14">
    <path d="M 98.793888 -1 
L 108.821994 9.653208 
L 119.777446 21.581821 
L 132.10233 35.347624 
L 144.427213 49.462044 
L 156.752097 63.906123 
L 170.446412 80.318166 
L 184.140727 97.086142 
L 199.204473 115.908955 
L 214.26822 135.091356 
L 230.701398 156.382738 
L 248.504007 179.821306 
L 267.676048 205.423562 
L 290.956384 236.898486 
L 322.453308 279.904265 
L 334.778192 296.789759 
L 336.147623 295.929556 
L 381.338863 234.199843 
L 404.619199 202.776691 
L 425.160671 175.421999 
L 442.963281 152.078333 
L 459.396459 130.889208 
L 474.460205 111.812588 
L 489.523952 93.106747 
L 503.218267 76.454511 
L 516.912582 60.166835 
L 529.237465 45.841764 
L 541.562349 31.852751 
L 553.887232 18.21842 
L 564.842684 6.411457 
L 571.869121 -1 
L 571.869121 -1 
" clip-path="url(#pe3018158d9)" style="fill: none; stroke: #d62728; stroke-width: 1.5; stroke-linecap: square"/>
   </g>
   <g id="line2d_15">
    <path d="M 116.325267 230.113404 
L 116.80167 220.283617 
L 121.089295 212.026596 
L 122.518503 203.376383 
L 122.0421 192.367021 
L 124.900517 183.323617 
L 124.900517 174.280213 
L 127.282531 166.416383 
L 129.188142 155.01383 
L 135.381378 151.475106 
L 140.621809 160.125319 
L 150.149865 167.989149 
L 158.248712 174.280213 
L 168.253171 177.818936 
L 181.592449 182.537234 
L 191.596907 188.041915 
L 203.98338 193.153404 
L 215.417047 197.478511 
L 226.850714 204.555957 
L 238.284381 212.812979 
L 254.005673 224.608723 
L 265.43934 229.327021 
L 273.061784 232.079362 
L 284.019049 236.011277 
L 290.688688 241.122766 
L 303.551563 246.234255 
L 313.556021 249.379787 
L 324.989688 251.738936 
L 334.517744 252.132128 
L 345.475008 250.559362 
L 353.097453 248.200213 
L 364.054717 245.447872 
L 375.488384 243.088723 
L 383.587231 240.729574 
L 392.162482 239.156809 
L 404.548954 236.011277 
L 413.124204 235.224894 
L 421.699455 235.224894 
L 432.656719 237.190851 
L 444.090386 242.695532 
L 455.524053 248.593404 
L 463.6229 252.525319 
L 474.580164 256.064043 
L 483.631817 257.636809 
L 494.112678 258.03 
L 505.546345 256.850426 
L 514.121596 255.670851 
L 529.842888 252.525319 
L 536.988929 247.807021 
L 541.752957 245.054681 
L 546.993388 240.729574 
L 553.663027 243.088723 
L 556.521444 249.772979 
L 559.856263 258.816383 
L 563.191083 263.141489 
L 565.573097 269.039362 
L 567.478708 273.364468 
" clip-path="url(#pe3018158d9)" style="fill: none; stroke-dasharray: 9.6,2.4,1.5,2.4; stroke-dashoffset: 0; stroke: #1f77b4; stroke-width: 1.5"/>
   </g>
   <g id="line2d_16">
    <path d="M 115.848864 228.147447 
L 117.278072 221.07 
L 119.660086 212.419787 
L 121.565697 202.59 
L 122.994906 192.367021 
L 125.853323 181.750851 
L 126.329725 171.134681 
L 127.282531 161.304894 
L 130.140948 145.577234 
L 133.475767 130.242766 
L 141.098212 125.91766 
L 150.626268 116.087872 
L 158.725115 112.94234 
L 166.34756 106.258085 
L 176.828421 105.471702 
L 187.309282 108.224043 
L 200.172158 114.121915 
L 210.176616 120.80617 
L 221.13388 128.276809 
L 227.327117 136.53383 
L 234.949561 148.329574 
L 240.666395 158.159362 
L 246.383228 175.459787 
L 249.718048 188.435106 
L 254.482076 197.085319 
L 257.816895 204.949149 
L 263.533729 213.992553 
L 269.250562 225.788298 
L 276.873007 241.909149 
L 281.637035 252.132128 
L 293.547104 263.927872 
L 304.504368 271.398511 
L 312.603216 276.903191 
L 321.178466 280.835106 
L 330.706522 280.441915 
L 338.328966 276.116809 
L 343.569397 269.432553 
L 348.333425 263.534681 
L 352.62105 256.457234 
L 357.861481 250.16617 
L 360.719898 244.268298 
L 367.389537 235.224894 
L 370.724356 227.361064 
L 375.011981 221.07 
L 379.299606 215.172128 
L 386.445648 209.274255 
L 393.59169 204.555957 
L 402.643343 200.624043 
L 413.600607 199.444468 
L 421.223052 199.051277 
L 429.798302 203.376383 
L 436.467941 206.521915 
L 444.090386 212.812979 
L 452.189233 219.104043 
L 456.953261 225.001915 
L 463.6229 230.899787 
L 470.768942 236.404468 
L 476.485775 239.943191 
L 486.013831 245.447872 
L 496.494692 252.132128 
L 505.069943 255.670851 
L 517.932818 257.636809 
L 527.460874 256.457234 
L 537.465332 254.884468 
L 545.56418 249.772979 
L 552.233819 247.020638 
L 554.13943 252.525319 
L 558.427055 258.03 
L 561.761874 265.500638 
L 565.573097 271.398511 
" clip-path="url(#pe3018158d9)" style="fill: none; stroke-dasharray: 9.6,2.4,1.5,2.4; stroke-dashoffset: 0; stroke: #d62728; stroke-width: 1.5"/>
   </g>
   <g id="patch_3">
    <path d="M 81 320.4 
L 81 43.2 
" style="fill: none; stroke: #000000; stroke-width: 0.8; stroke-linejoin: miter; stroke-linecap: square"/>
   </g>
   <g id="patch_4">
    <path d="M 583.2 320.4 
L 583.2 43.2 
" style="fill: none; stroke: #000000; stroke-width: 0.8; stroke-linejoin: miter; stroke-linecap: square"/>
   </g>
   <g id="patch_5">
    <path d="M 81 320.4 
L 583.2 320.4 
" style="fill: none; stroke: #000000; stroke-width: 0.8; stroke-linejoin: miter; stroke-linecap: square"/>
   </g>
   <g id="patch_6">
    <path d="M 81 43.2 
L 583.2 43.2 
" style="fill: none; stroke: #000000; stroke-width: 0.8; stroke-linejoin: miter; stroke-linecap: square"/>
   </g>
   <g id="text_15">
    <!-- Comparing modelled and measured Acoustic Reflectometry -->
    <g transform="translate(93.3125 37.2) scale(0.16 -0.16)">
     <defs>
      <path id="DejaVuSans-43" d="M 4122 4306 
L 4122 3641 
Q 3803 3938 3442 4084 
Q 3081 4231 2675 4231 
Q 1875 4231 1450 3742 
Q 1025 3253 1025 2328 
Q 1025 1406 1450 917 
Q 1875 428 2675 428 
Q 3081 428 3442 575 
Q 3803 722 4122 1019 
L 4122 359 
Q 3791 134 3420 21 
Q 3050 -91 2638 -91 
Q 1578 -91 968 557 
Q 359 1206 359 2328 
Q 359 3453 968 4101 
Q 1578 4750 2638 4750 
Q 3056 4750 3426 4639 
Q 3797 4528 4122 4306 
z
" transform="scale(0.015625)"/>
      <path id="DejaVuSans-67" d="M 2906 1791 
Q 2906 2416 2648 2759 
Q 2391 3103 1925 3103 
Q 1463 3103 1205 2759 
Q 947 2416 947 1791 
Q 947 1169 1205 825 
Q 1463 481 1925 481 
Q 2391 481 2648 825 
Q 2906 1169 2906 1791 
z
M 3481 434 
Q 3481 -459 3084 -895 
Q 2688 -1331 1869 -1331 
Q 1566 -1331 1297 -1286 
Q 1028 -1241 775 -1147 
L 775 -588 
Q 1028 -725 1275 -790 
Q 1522 -856 1778 -856 
Q 2344 -856 2625 -561 
Q 2906 -266 2906 331 
L 2906 616 
Q 2728 306 2450 153 
Q 2172 0 1784 0 
Q 1141 0 747 490 
Q 353 981 353 1791 
Q 353 2603 747 3093 
Q 1141 3584 1784 3584 
Q 2172 3584 2450 3431 
Q 2728 3278 2906 2969 
L 2906 3500 
L 3481 3500 
L 3481 434 
z
" transform="scale(0.015625)"/>
      <path id="DejaVuSans-52" d="M 2841 2188 
Q 3044 2119 3236 1894 
Q 3428 1669 3622 1275 
L 4263 0 
L 3584 0 
L 2988 1197 
Q 2756 1666 2539 1819 
Q 2322 1972 1947 1972 
L 1259 1972 
L 1259 0 
L 628 0 
L 628 4666 
L 2053 4666 
Q 2853 4666 3247 4331 
Q 3641 3997 3641 3322 
Q 3641 2881 3436 2590 
Q 3231 2300 2841 2188 
z
M 1259 4147 
L 1259 2491 
L 2053 2491 
Q 2509 2491 2742 2702 
Q 2975 2913 2975 3322 
Q 2975 3731 2742 3939 
Q 2509 4147 2053 4147 
L 1259 4147 
z
" transform="scale(0.015625)"/>
      <path id="DejaVuSans-66" d="M 2375 4863 
L 2375 4384 
L 1825 4384 
Q 1516 4384 1395 4259 
Q 1275 4134 1275 3809 
L 1275 3500 
L 2222 3500 
L 2222 3053 
L 1275 3053 
L 1275 0 
L 697 0 
L 697 3053 
L 147 3053 
L 147 3500 
L 697 3500 
L 697 3744 
Q 697 4328 969 4595 
Q 1241 4863 1831 4863 
L 2375 4863 
z
" transform="scale(0.015625)"/>
     </defs>
     <use xlink:href="#DejaVuSans-43"/>
     <use xlink:href="#DejaVuSans-6f" x="69.824219"/>
     <use xlink:href="#DejaVuSans-6d" x="131.005859"/>
     <use xlink:href="#DejaVuSans-70" x="228.417969"/>
     <use xlink:href="#DejaVuSans-61" x="291.894531"/>
     <use xlink:href="#DejaVuSans-72" x="353.173828"/>
     <use xlink:href="#DejaVuSans-69" x="394.287109"/>
     <use xlink:href="#DejaVuSans-6e" x="422.070312"/>
     <use xlink:href="#DejaVuSans-67" x="485.449219"/>
     <use xlink:href="#DejaVuSans-20" x="548.925781"/>
     <use xlink:href="#DejaVuSans-6d" x="580.712891"/>
     <use xlink:href="#DejaVuSans-6f" x="678.125"/>
     <use xlink:href="#DejaVuSans-64" x="739.306641"/>
     <use xlink:href="#DejaVuSans-65" x="802.783203"/>
     <use xlink:href="#DejaVuSans-6c" x="864.306641"/>
     <use xlink:href="#DejaVuSans-6c" x="892.089844"/>
     <use xlink:href="#DejaVuSans-65" x="919.873047"/>
     <use xlink:href="#DejaVuSans-64" x="981.396484"/>
     <use xlink:href="#DejaVuSans-20" x="1044.873047"/>
     <use xlink:href="#DejaVuSans-61" x="1076.660156"/>
     <use xlink:href="#DejaVuSans-6e" x="1137.939453"/>
     <use xlink:href="#DejaVuSans-64" x="1201.318359"/>
     <use xlink:href="#DejaVuSans-20" x="1264.794922"/>
     <use xlink:href="#DejaVuSans-6d" x="1296.582031"/>
     <use xlink:href="#DejaVuSans-65" x="1393.994141"/>
     <use xlink:href="#DejaVuSans-61" x="1455.517578"/>
     <use xlink:href="#DejaVuSans-73" x="1516.796875"/>
     <use xlink:href="#DejaVuSans-75" x="1568.896484"/>
     <use xlink:href="#DejaVuSans-72" x="1632.275391"/>
     <use xlink:href="#DejaVuSans-65" x="1671.138672"/>
     <use xlink:href="#DejaVuSans-64" x="1732.662109"/>
     <use xlink:href="#DejaVuSans-20" x="1796.138672"/>
     <use xlink:href="#DejaVuSans-41" x="1827.925781"/>
     <use xlink:href="#DejaVuSans-63" x="1894.583984"/>
     <use xlink:href="#DejaVuSans-6f" x="1949.564453"/>
     <use xlink:href="#DejaVuSans-75" x="2010.746094"/>
     <use xlink:href="#DejaVuSans-73" x="2074.125"/>
     <use xlink:href="#DejaVuSans-74" x="2126.224609"/>
     <use xlink:href="#DejaVuSans-69" x="2165.433594"/>
     <use xlink:href="#DejaVuSans-63" x="2193.216797"/>
     <use xlink:href="#DejaVuSans-20" x="2248.197266"/>
     <use xlink:href="#DejaVuSans-52" x="2279.984375"/>
     <use xlink:href="#DejaVuSans-65" x="2344.966797"/>
     <use xlink:href="#DejaVuSans-66" x="2406.490234"/>
     <use xlink:href="#DejaVuSans-6c" x="2441.695312"/>
     <use xlink:href="#DejaVuSans-65" x="2469.478516"/>
     <use xlink:href="#DejaVuSans-63" x="2531.001953"/>
     <use xlink:href="#DejaVuSans-74" x="2585.982422"/>
     <use xlink:href="#DejaVuSans-6f" x="2625.191406"/>
     <use xlink:href="#DejaVuSans-6d" x="2686.373047"/>
     <use xlink:href="#DejaVuSans-65" x="2783.785156"/>
     <use xlink:href="#DejaVuSans-74" x="2845.308594"/>
     <use xlink:href="#DejaVuSans-72" x="2884.517578"/>
     <use xlink:href="#DejaVuSans-79" x="2925.630859"/>
    </g>
   </g>
   <g id="legend_1">
    <g id="patch_7">
     <path d="M 220.238438 123.255 
L 443.961563 123.255 
Q 446.361562 123.255 446.361562 120.855 
L 446.361562 51.6 
Q 446.361562 49.2 443.961563 49.2 
L 220.238438 49.2 
Q 217.838438 49.2 217.838438 51.6 
L 217.838438 120.855 
Q 217.838438 123.255 220.238438 123.255 
z
" style="fill: #ffffff; opacity: 0.8; stroke: #cccccc; stroke-linejoin: miter"/>
    </g>
    <g id="line2d_17">
     <path d="M 222.638438 58.918125 
L 234.638438 58.918125 
L 246.638438 58.918125 
" style="fill: none; stroke: #1f77b4; stroke-width: 1.5; stroke-linecap: square"/>
    </g>
    <g id="text_16">
     <!-- modelled 0% effused (healthy) -->
     <g transform="translate(256.238438 63.118125) scale(0.12 -0.12)">
      <defs>
       <path id="DejaVuSans-25" d="M 4653 2053 
Q 4381 2053 4226 1822 
Q 4072 1591 4072 1178 
Q 4072 772 4226 539 
Q 4381 306 4653 306 
Q 4919 306 5073 539 
Q 5228 772 5228 1178 
Q 5228 1588 5073 1820 
Q 4919 2053 4653 2053 
z
M 4653 2450 
Q 5147 2450 5437 2106 
Q 5728 1763 5728 1178 
Q 5728 594 5436 251 
Q 5144 -91 4653 -91 
Q 4153 -91 3862 251 
Q 3572 594 3572 1178 
Q 3572 1766 3864 2108 
Q 4156 2450 4653 2450 
z
M 1428 4353 
Q 1159 4353 1004 4120 
Q 850 3888 850 3481 
Q 850 3069 1003 2837 
Q 1156 2606 1428 2606 
Q 1700 2606 1854 2837 
Q 2009 3069 2009 3481 
Q 2009 3884 1853 4118 
Q 1697 4353 1428 4353 
z
M 4250 4750 
L 4750 4750 
L 1831 -91 
L 1331 -91 
L 4250 4750 
z
M 1428 4750 
Q 1922 4750 2215 4408 
Q 2509 4066 2509 3481 
Q 2509 2891 2217 2550 
Q 1925 2209 1428 2209 
Q 931 2209 642 2551 
Q 353 2894 353 3481 
Q 353 4063 643 4406 
Q 934 4750 1428 4750 
z
" transform="scale(0.015625)"/>
       <path id="DejaVuSans-68" d="M 3513 2113 
L 3513 0 
L 2938 0 
L 2938 2094 
Q 2938 2591 2744 2837 
Q 2550 3084 2163 3084 
Q 1697 3084 1428 2787 
Q 1159 2491 1159 1978 
L 1159 0 
L 581 0 
L 581 4863 
L 1159 4863 
L 1159 2956 
Q 1366 3272 1645 3428 
Q 1925 3584 2291 3584 
Q 2894 3584 3203 3211 
Q 3513 2838 3513 2113 
z
" transform="scale(0.015625)"/>
      </defs>
      <use xlink:href="#DejaVuSans-6d"/>
      <use xlink:href="#DejaVuSans-6f" x="97.412109"/>
      <use xlink:href="#DejaVuSans-64" x="158.59375"/>
      <use xlink:href="#DejaVuSans-65" x="222.070312"/>
      <use xlink:href="#DejaVuSans-6c" x="283.59375"/>
      <use xlink:href="#DejaVuSans-6c" x="311.376953"/>
      <use xlink:href="#DejaVuSans-65" x="339.160156"/>
      <use xlink:href="#DejaVuSans-64" x="400.683594"/>
      <use xlink:href="#DejaVuSans-20" x="464.160156"/>
      <use xlink:href="#DejaVuSans-30" x="495.947266"/>
      <use xlink:href="#DejaVuSans-25" x="559.570312"/>
      <use xlink:href="#DejaVuSans-20" x="654.589844"/>
      <use xlink:href="#DejaVuSans-65" x="686.376953"/>
      <use xlink:href="#DejaVuSans-66" x="747.900391"/>
      <use xlink:href="#DejaVuSans-66" x="783.105469"/>
      <use xlink:href="#DejaVuSans-75" x="818.310547"/>
      <use xlink:href="#DejaVuSans-73" x="881.689453"/>
      <use xlink:href="#DejaVuSans-65" x="933.789062"/>
      <use xlink:href="#DejaVuSans-64" x="995.3125"/>
      <use xlink:href="#DejaVuSans-20" x="1058.789062"/>
      <use xlink:href="#DejaVuSans-28" x="1090.576172"/>
      <use xlink:href="#DejaVuSans-68" x="1129.589844"/>
      <use xlink:href="#DejaVuSans-65" x="1192.96875"/>
      <use xlink:href="#DejaVuSans-61" x="1254.492188"/>
      <use xlink:href="#DejaVuSans-6c" x="1315.771484"/>
      <use xlink:href="#DejaVuSans-74" x="1343.554688"/>
      <use xlink:href="#DejaVuSans-68" x="1382.763672"/>
      <use xlink:href="#DejaVuSans-79" x="1446.142578"/>
      <use xlink:href="#DejaVuSans-29" x="1505.322266"/>
     </g>
    </g>
    <g id="line2d_18">
     <path d="M 222.638438 76.531875 
L 234.638438 76.531875 
L 246.638438 76.531875 
" style="fill: none; stroke: #d62728; stroke-width: 1.5; stroke-linecap: square"/>
    </g>
    <g id="text_17">
     <!-- modelled 100% effused -->
     <g transform="translate(256.238438 80.731875) scale(0.12 -0.12)">
      <use xlink:href="#DejaVuSans-6d"/>
      <use xlink:href="#DejaVuSans-6f" x="97.412109"/>
      <use xlink:href="#DejaVuSans-64" x="158.59375"/>
      <use xlink:href="#DejaVuSans-65" x="222.070312"/>
      <use xlink:href="#DejaVuSans-6c" x="283.59375"/>
      <use xlink:href="#DejaVuSans-6c" x="311.376953"/>
      <use xlink:href="#DejaVuSans-65" x="339.160156"/>
      <use xlink:href="#DejaVuSans-64" x="400.683594"/>
      <use xlink:href="#DejaVuSans-20" x="464.160156"/>
      <use xlink:href="#DejaVuSans-31" x="495.947266"/>
      <use xlink:href="#DejaVuSans-30" x="559.570312"/>
      <use xlink:href="#DejaVuSans-30" x="623.193359"/>
      <use xlink:href="#DejaVuSans-25" x="686.816406"/>
      <use xlink:href="#DejaVuSans-20" x="781.835938"/>
      <use xlink:href="#DejaVuSans-65" x="813.623047"/>
      <use xlink:href="#DejaVuSans-66" x="875.146484"/>
      <use xlink:href="#DejaVuSans-66" x="910.351562"/>
      <use xlink:href="#DejaVuSans-75" x="945.556641"/>
      <use xlink:href="#DejaVuSans-73" x="1008.935547"/>
      <use xlink:href="#DejaVuSans-65" x="1061.035156"/>
      <use xlink:href="#DejaVuSans-64" x="1122.558594"/>
     </g>
    </g>
    <g id="line2d_19">
     <path d="M 222.638438 94.145625 
L 234.638438 94.145625 
L 246.638438 94.145625 
" style="fill: none; stroke-dasharray: 9.6,2.4,1.5,2.4; stroke-dashoffset: 0; stroke: #1f77b4; stroke-width: 1.5"/>
    </g>
    <g id="text_18">
     <!-- measured healthy ear -->
     <g transform="translate(256.238438 98.345625) scale(0.12 -0.12)">
      <use xlink:href="#DejaVuSans-6d"/>
      <use xlink:href="#DejaVuSans-65" x="97.412109"/>
      <use xlink:href="#DejaVuSans-61" x="158.935547"/>
      <use xlink:href="#DejaVuSans-73" x="220.214844"/>
      <use xlink:href="#DejaVuSans-75" x="272.314453"/>
      <use xlink:href="#DejaVuSans-72" x="335.693359"/>
      <use xlink:href="#DejaVuSans-65" x="374.556641"/>
      <use xlink:href="#DejaVuSans-64" x="436.080078"/>
      <use xlink:href="#DejaVuSans-20" x="499.556641"/>
      <use xlink:href="#DejaVuSans-68" x="531.34375"/>
      <use xlink:href="#DejaVuSans-65" x="594.722656"/>
      <use xlink:href="#DejaVuSans-61" x="656.246094"/>
      <use xlink:href="#DejaVuSans-6c" x="717.525391"/>
      <use xlink:href="#DejaVuSans-74" x="745.308594"/>
      <use xlink:href="#DejaVuSans-68" x="784.517578"/>
      <use xlink:href="#DejaVuSans-79" x="847.896484"/>
      <use xlink:href="#DejaVuSans-20" x="907.076172"/>
      <use xlink:href="#DejaVuSans-65" x="938.863281"/>
      <use xlink:href="#DejaVuSans-61" x="1000.386719"/>
      <use xlink:href="#DejaVuSans-72" x="1061.666016"/>
     </g>
    </g>
    <g id="line2d_20">
     <path d="M 222.638438 111.759375 
L 234.638438 111.759375 
L 246.638438 111.759375 
" style="fill: none; stroke-dasharray: 9.6,2.4,1.5,2.4; stroke-dashoffset: 0; stroke: #d62728; stroke-width: 1.5"/>
    </g>
    <g id="text_19">
     <!-- measured effused ear -->
     <g transform="translate(256.238438 115.959375) scale(0.12 -0.12)">
      <use xlink:href="#DejaVuSans-6d"/>
      <use xlink:href="#DejaVuSans-65" x="97.412109"/>
      <use xlink:href="#DejaVuSans-61" x="158.935547"/>
      <use xlink:href="#DejaVuSans-73" x="220.214844"/>
      <use xlink:href="#DejaVuSans-75" x="272.314453"/>
      <use xlink:href="#DejaVuSans-72" x="335.693359"/>
      <use xlink:href="#DejaVuSans-65" x="374.556641"/>
      <use xlink:href="#DejaVuSans-64" x="436.080078"/>
      <use xlink:href="#DejaVuSans-20" x="499.556641"/>
      <use xlink:href="#DejaVuSans-65" x="531.34375"/>
      <use xlink:href="#DejaVuSans-66" x="592.867188"/>
      <use xlink:href="#DejaVuSans-66" x="628.072266"/>
      <use xlink:href="#DejaVuSans-75" x="663.277344"/>
      <use xlink:href="#DejaVuSans-73" x="726.65625"/>
      <use xlink:href="#DejaVuSans-65" x="778.755859"/>
      <use xlink:href="#DejaVuSans-64" x="840.279297"/>
      <use xlink:href="#DejaVuSans-20" x="903.755859"/>
      <use xlink:href="#DejaVuSans-65" x="935.542969"/>
      <use xlink:href="#DejaVuSans-61" x="997.066406"/>
      <use xlink:href="#DejaVuSans-72" x="1058.345703"/>
     </g>
    </g>
   </g>
  </g>
 </g>
 <defs>
  <clipPath id="pe3018158d9">
   <rect x="81" y="43.2" width="502.2" height="277.2"/>
  </clipPath>
 </defs>
</svg>
