<?xml version="1.0" encoding="utf-8" standalone="no"?>
<!DOCTYPE svg PUBLIC "-//W3C//DTD SVG 1.1//EN"
  "http://www.w3.org/Graphics/SVG/1.1/DTD/svg11.dtd">
<svg xmlns:xlink="http://www.w3.org/1999/xlink" width="648pt" height="360pt" viewBox="0 0 648 360" xmlns="http://www.w3.org/2000/svg" version="1.1">
 <metadata>
  <rdf:RDF xmlns:dc="http://purl.org/dc/elements/1.1/" xmlns:cc="http://creativecommons.org/ns#" xmlns:rdf="http://www.w3.org/1999/02/22-rdf-syntax-ns#">
   <cc:Work>
    <dc:type rdf:resource="http://purl.org/dc/dcmitype/StillImage"/>
    <dc:date>2023-01-06T22:20:46.312058</dc:date>
    <dc:format>image/svg+xml</dc:format>
    <dc:creator>
     <cc:Agent>
      <dc:title>Matplotlib v3.6.1, https://matplotlib.org/</dc:title>
     </cc:Agent>
    </dc:creator>
   </cc:Work>
  </rdf:RDF>
 </metadata>
 <defs>
  <style type="text/css">*{stroke-linejoin: round; stroke-linecap: butt}</style>
 </defs>
 <g id="figure_1">
  <g id="patch_1">
   <path d="M 0 360 
L 648 360 
L 648 0 
L 0 0 
z
" style="fill: #ffffff"/>
  </g>
  <g id="axes_1">
   <g id="patch_2">
    <path d="M 81 320.4 
L 583.2 320.4 
L 583.2 43.2 
L 81 43.2 
z
" style="fill: #ffffff"/>
   </g>
   <g id="matplotlib.axis_1">
    <g id="xtick_1">
     <g id="line2d_1">
      <defs>
       <path id="mda54b53ebc" d="M 0 0 
L 0 3.5 
" style="stroke: #000000; stroke-width: 0.8"/>
      </defs>
      <g>
       <use xlink:href="#mda54b53ebc" x="103.827273" y="320.4" style="stroke: #000000; stroke-width: 0.8"/>
      </g>
     </g>
     <g id="text_1">
      <!-- 1500 -->
      <g transform="translate(91.102273 334.998438) scale(0.1 -0.1)">
       <defs>
        <path id="DejaVuSans-31" d="M 794 531 
L 1825 531 
L 1825 4091 
L 703 3866 
L 703 4441 
L 1819 4666 
L 2450 4666 
L 2450 531 
L 3481 531 
L 3481 0 
L 794 0 
L 794 531 
z
" transform="scale(0.015625)"/>
        <path id="DejaVuSans-35" d="M 691 4666 
L 3169 4666 
L 3169 4134 
L 1269 4134 
L 1269 2991 
Q 1406 3038 1543 3061 
Q 1681 3084 1819 3084 
Q 2600 3084 3056 2656 
Q 3513 2228 3513 1497 
Q 3513 744 3044 326 
Q 2575 -91 1722 -91 
Q 1428 -91 1123 -41 
Q 819 9 494 109 
L 494 744 
Q 775 591 1075 516 
Q 1375 441 1709 441 
Q 2250 441 2565 725 
Q 2881 1009 2881 1497 
Q 2881 1984 2565 2268 
Q 2250 2553 1709 2553 
Q 1456 2553 1204 2497 
Q 953 2441 691 2322 
L 691 4666 
z
" transform="scale(0.015625)"/>
        <path id="DejaVuSans-30" d="M 2034 4250 
Q 1547 4250 1301 3770 
Q 1056 3291 1056 2328 
Q 1056 1369 1301 889 
Q 1547 409 2034 409 
Q 2525 409 2770 889 
Q 3016 1369 3016 2328 
Q 3016 3291 2770 3770 
Q 2525 4250 2034 4250 
z
M 2034 4750 
Q 2819 4750 3233 4129 
Q 3647 3509 3647 2328 
Q 3647 1150 3233 529 
Q 2819 -91 2034 -91 
Q 1250 -91 836 529 
Q 422 1150 422 2328 
Q 422 3509 836 4129 
Q 1250 4750 2034 4750 
z
" transform="scale(0.015625)"/>
       </defs>
       <use xlink:href="#DejaVuSans-31"/>
       <use xlink:href="#DejaVuSans-35" x="63.623047"/>
       <use xlink:href="#DejaVuSans-30" x="127.246094"/>
       <use xlink:href="#DejaVuSans-30" x="190.869141"/>
      </g>
     </g>
    </g>
    <g id="xtick_2">
     <g id="line2d_2">
      <g>
       <use xlink:href="#mda54b53ebc" x="169.048052" y="320.4" style="stroke: #000000; stroke-width: 0.8"/>
      </g>
     </g>
     <g id="text_2">
      <!-- 2000 -->
      <g transform="translate(156.323052 334.998438) scale(0.1 -0.1)">
       <defs>
        <path id="DejaVuSans-32" d="M 1228 531 
L 3431 531 
L 3431 0 
L 469 0 
L 469 531 
Q 828 903 1448 1529 
Q 2069 2156 2228 2338 
Q 2531 2678 2651 2914 
Q 2772 3150 2772 3378 
Q 2772 3750 2511 3984 
Q 2250 4219 1831 4219 
Q 1534 4219 1204 4116 
Q 875 4013 500 3803 
L 500 4441 
Q 881 4594 1212 4672 
Q 1544 4750 1819 4750 
Q 2544 4750 2975 4387 
Q 3406 4025 3406 3419 
Q 3406 3131 3298 2873 
Q 3191 2616 2906 2266 
Q 2828 2175 2409 1742 
Q 1991 1309 1228 531 
z
" transform="scale(0.015625)"/>
       </defs>
       <use xlink:href="#DejaVuSans-32"/>
       <use xlink:href="#DejaVuSans-30" x="63.623047"/>
       <use xlink:href="#DejaVuSans-30" x="127.246094"/>
       <use xlink:href="#DejaVuSans-30" x="190.869141"/>
      </g>
     </g>
    </g>
    <g id="xtick_3">
     <g id="line2d_3">
      <g>
       <use xlink:href="#mda54b53ebc" x="234.268831" y="320.4" style="stroke: #000000; stroke-width: 0.8"/>
      </g>
     </g>
     <g id="text_3">
      <!-- 2500 -->
      <g transform="translate(221.543831 334.998438) scale(0.1 -0.1)">
       <use xlink:href="#DejaVuSans-32"/>
       <use xlink:href="#DejaVuSans-35" x="63.623047"/>
       <use xlink:href="#DejaVuSans-30" x="127.246094"/>
       <use xlink:href="#DejaVuSans-30" x="190.869141"/>
      </g>
     </g>
    </g>
    <g id="xtick_4">
     <g id="line2d_4">
      <g>
       <use xlink:href="#mda54b53ebc" x="299.48961" y="320.4" style="stroke: #000000; stroke-width: 0.8"/>
      </g>
     </g>
     <g id="text_4">
      <!-- 3000 -->
      <g transform="translate(286.76461 334.998438) scale(0.1 -0.1)">
       <defs>
        <path id="DejaVuSans-33" d="M 2597 2516 
Q 3050 2419 3304 2112 
Q 3559 1806 3559 1356 
Q 3559 666 3084 287 
Q 2609 -91 1734 -91 
Q 1441 -91 1130 -33 
Q 819 25 488 141 
L 488 750 
Q 750 597 1062 519 
Q 1375 441 1716 441 
Q 2309 441 2620 675 
Q 2931 909 2931 1356 
Q 2931 1769 2642 2001 
Q 2353 2234 1838 2234 
L 1294 2234 
L 1294 2753 
L 1863 2753 
Q 2328 2753 2575 2939 
Q 2822 3125 2822 3475 
Q 2822 3834 2567 4026 
Q 2313 4219 1838 4219 
Q 1578 4219 1281 4162 
Q 984 4106 628 3988 
L 628 4550 
Q 988 4650 1302 4700 
Q 1616 4750 1894 4750 
Q 2613 4750 3031 4423 
Q 3450 4097 3450 3541 
Q 3450 3153 3228 2886 
Q 3006 2619 2597 2516 
z
" transform="scale(0.015625)"/>
       </defs>
       <use xlink:href="#DejaVuSans-33"/>
       <use xlink:href="#DejaVuSans-30" x="63.623047"/>
       <use xlink:href="#DejaVuSans-30" x="127.246094"/>
       <use xlink:href="#DejaVuSans-30" x="190.869141"/>
      </g>
     </g>
    </g>
    <g id="xtick_5">
     <g id="line2d_5">
      <g>
       <use xlink:href="#mda54b53ebc" x="364.71039" y="320.4" style="stroke: #000000; stroke-width: 0.8"/>
      </g>
     </g>
     <g id="text_5">
      <!-- 3500 -->
      <g transform="translate(351.98539 334.998438) scale(0.1 -0.1)">
       <use xlink:href="#DejaVuSans-33"/>
       <use xlink:href="#DejaVuSans-35" x="63.623047"/>
       <use xlink:href="#DejaVuSans-30" x="127.246094"/>
       <use xlink:href="#DejaVuSans-30" x="190.869141"/>
      </g>
     </g>
    </g>
    <g id="xtick_6">
     <g id="line2d_6">
      <g>
       <use xlink:href="#mda54b53ebc" x="429.931169" y="320.4" style="stroke: #000000; stroke-width: 0.8"/>
      </g>
     </g>
     <g id="text_6">
      <!-- 4000 -->
      <g transform="translate(417.206169 334.998438) scale(0.1 -0.1)">
       <defs>
        <path id="DejaVuSans-34" d="M 2419 4116 
L 825 1625 
L 2419 1625 
L 2419 4116 
z
M 2253 4666 
L 3047 4666 
L 3047 1625 
L 3713 1625 
L 3713 1100 
L 3047 1100 
L 3047 0 
L 2419 0 
L 2419 1100 
L 313 1100 
L 313 1709 
L 2253 4666 
z
" transform="scale(0.015625)"/>
       </defs>
       <use xlink:href="#DejaVuSans-34"/>
       <use xlink:href="#DejaVuSans-30" x="63.623047"/>
       <use xlink:href="#DejaVuSans-30" x="127.246094"/>
       <use xlink:href="#DejaVuSans-30" x="190.869141"/>
      </g>
     </g>
    </g>
    <g id="xtick_7">
     <g id="line2d_7">
      <g>
       <use xlink:href="#mda54b53ebc" x="495.151948" y="320.4" style="stroke: #000000; stroke-width: 0.8"/>
      </g>
     </g>
     <g id="text_7">
      <!-- 4500 -->
      <g transform="translate(482.426948 334.998438) scale(0.1 -0.1)">
       <use xlink:href="#DejaVuSans-34"/>
       <use xlink:href="#DejaVuSans-35" x="63.623047"/>
       <use xlink:href="#DejaVuSans-30" x="127.246094"/>
       <use xlink:href="#DejaVuSans-30" x="190.869141"/>
      </g>
     </g>
    </g>
    <g id="xtick_8">
     <g id="line2d_8">
      <g>
       <use xlink:href="#mda54b53ebc" x="560.372727" y="320.4" style="stroke: #000000; stroke-width: 0.8"/>
      </g>
     </g>
     <g id="text_8">
      <!-- 5000 -->
      <g transform="translate(547.647727 334.998438) scale(0.1 -0.1)">
       <use xlink:href="#DejaVuSans-35"/>
       <use xlink:href="#DejaVuSans-30" x="63.623047"/>
       <use xlink:href="#DejaVuSans-30" x="127.246094"/>
       <use xlink:href="#DejaVuSans-30" x="190.869141"/>
      </g>
     </g>
    </g>
    <g id="text_9">
     <!-- Frequency (Hz) -->
     <g transform="translate(271.7725 353.235625) scale(0.16 -0.16)">
      <defs>
       <path id="DejaVuSans-46" d="M 628 4666 
L 3309 4666 
L 3309 4134 
L 1259 4134 
L 1259 2759 
L 3109 2759 
L 3109 2228 
L 1259 2228 
L 1259 0 
L 628 0 
L 628 4666 
z
" transform="scale(0.015625)"/>
       <path id="DejaVuSans-72" d="M 2631 2963 
Q 2534 3019 2420 3045 
Q 2306 3072 2169 3072 
Q 1681 3072 1420 2755 
Q 1159 2438 1159 1844 
L 1159 0 
L 581 0 
L 581 3500 
L 1159 3500 
L 1159 2956 
Q 1341 3275 1631 3429 
Q 1922 3584 2338 3584 
Q 2397 3584 2469 3576 
Q 2541 3569 2628 3553 
L 2631 2963 
z
" transform="scale(0.015625)"/>
       <path id="DejaVuSans-65" d="M 3597 1894 
L 3597 1613 
L 953 1613 
Q 991 1019 1311 708 
Q 1631 397 2203 397 
Q 2534 397 2845 478 
Q 3156 559 3463 722 
L 3463 178 
Q 3153 47 2828 -22 
Q 2503 -91 2169 -91 
Q 1331 -91 842 396 
Q 353 884 353 1716 
Q 353 2575 817 3079 
Q 1281 3584 2069 3584 
Q 2775 3584 3186 3129 
Q 3597 2675 3597 1894 
z
M 3022 2063 
Q 3016 2534 2758 2815 
Q 2500 3097 2075 3097 
Q 1594 3097 1305 2825 
Q 1016 2553 972 2059 
L 3022 2063 
z
" transform="scale(0.015625)"/>
       <path id="DejaVuSans-71" d="M 947 1747 
Q 947 1113 1208 752 
Q 1469 391 1925 391 
Q 2381 391 2643 752 
Q 2906 1113 2906 1747 
Q 2906 2381 2643 2742 
Q 2381 3103 1925 3103 
Q 1469 3103 1208 2742 
Q 947 2381 947 1747 
z
M 2906 525 
Q 2725 213 2448 61 
Q 2172 -91 1784 -91 
Q 1150 -91 751 415 
Q 353 922 353 1747 
Q 353 2572 751 3078 
Q 1150 3584 1784 3584 
Q 2172 3584 2448 3432 
Q 2725 3281 2906 2969 
L 2906 3500 
L 3481 3500 
L 3481 -1331 
L 2906 -1331 
L 2906 525 
z
" transform="scale(0.015625)"/>
       <path id="DejaVuSans-75" d="M 544 1381 
L 544 3500 
L 1119 3500 
L 1119 1403 
Q 1119 906 1312 657 
Q 1506 409 1894 409 
Q 2359 409 2629 706 
Q 2900 1003 2900 1516 
L 2900 3500 
L 3475 3500 
L 3475 0 
L 2900 0 
L 2900 538 
Q 2691 219 2414 64 
Q 2138 -91 1772 -91 
Q 1169 -91 856 284 
Q 544 659 544 1381 
z
M 1991 3584 
L 1991 3584 
z
" transform="scale(0.015625)"/>
       <path id="DejaVuSans-6e" d="M 3513 2113 
L 3513 0 
L 2938 0 
L 2938 2094 
Q 2938 2591 2744 2837 
Q 2550 3084 2163 3084 
Q 1697 3084 1428 2787 
Q 1159 2491 1159 1978 
L 1159 0 
L 581 0 
L 581 3500 
L 1159 3500 
L 1159 2956 
Q 1366 3272 1645 3428 
Q 1925 3584 2291 3584 
Q 2894 3584 3203 3211 
Q 3513 2838 3513 2113 
z
" transform="scale(0.015625)"/>
       <path id="DejaVuSans-63" d="M 3122 3366 
L 3122 2828 
Q 2878 2963 2633 3030 
Q 2388 3097 2138 3097 
Q 1578 3097 1268 2742 
Q 959 2388 959 1747 
Q 959 1106 1268 751 
Q 1578 397 2138 397 
Q 2388 397 2633 464 
Q 2878 531 3122 666 
L 3122 134 
Q 2881 22 2623 -34 
Q 2366 -91 2075 -91 
Q 1284 -91 818 406 
Q 353 903 353 1747 
Q 353 2603 823 3093 
Q 1294 3584 2113 3584 
Q 2378 3584 2631 3529 
Q 2884 3475 3122 3366 
z
" transform="scale(0.015625)"/>
       <path id="DejaVuSans-79" d="M 2059 -325 
Q 1816 -950 1584 -1140 
Q 1353 -1331 966 -1331 
L 506 -1331 
L 506 -850 
L 844 -850 
Q 1081 -850 1212 -737 
Q 1344 -625 1503 -206 
L 1606 56 
L 191 3500 
L 800 3500 
L 1894 763 
L 2988 3500 
L 3597 3500 
L 2059 -325 
z
" transform="scale(0.015625)"/>
       <path id="DejaVuSans-20" transform="scale(0.015625)"/>
       <path id="DejaVuSans-28" d="M 1984 4856 
Q 1566 4138 1362 3434 
Q 1159 2731 1159 2009 
Q 1159 1288 1364 580 
Q 1569 -128 1984 -844 
L 1484 -844 
Q 1016 -109 783 600 
Q 550 1309 550 2009 
Q 550 2706 781 3412 
Q 1013 4119 1484 4856 
L 1984 4856 
z
" transform="scale(0.015625)"/>
       <path id="DejaVuSans-48" d="M 628 4666 
L 1259 4666 
L 1259 2753 
L 3553 2753 
L 3553 4666 
L 4184 4666 
L 4184 0 
L 3553 0 
L 3553 2222 
L 1259 2222 
L 1259 0 
L 628 0 
L 628 4666 
z
" transform="scale(0.015625)"/>
       <path id="DejaVuSans-7a" d="M 353 3500 
L 3084 3500 
L 3084 2975 
L 922 459 
L 3084 459 
L 3084 0 
L 275 0 
L 275 525 
L 2438 3041 
L 353 3041 
L 353 3500 
z
" transform="scale(0.015625)"/>
       <path id="DejaVuSans-29" d="M 513 4856 
L 1013 4856 
Q 1481 4119 1714 3412 
Q 1947 2706 1947 2009 
Q 1947 1309 1714 600 
Q 1481 -109 1013 -844 
L 513 -844 
Q 928 -128 1133 580 
Q 1338 1288 1338 2009 
Q 1338 2731 1133 3434 
Q 928 4138 513 4856 
z
" transform="scale(0.015625)"/>
      </defs>
      <use xlink:href="#DejaVuSans-46"/>
      <use xlink:href="#DejaVuSans-72" x="50.269531"/>
      <use xlink:href="#DejaVuSans-65" x="89.132812"/>
      <use xlink:href="#DejaVuSans-71" x="150.65625"/>
      <use xlink:href="#DejaVuSans-75" x="214.132812"/>
      <use xlink:href="#DejaVuSans-65" x="277.511719"/>
      <use xlink:href="#DejaVuSans-6e" x="339.035156"/>
      <use xlink:href="#DejaVuSans-63" x="402.414062"/>
      <use xlink:href="#DejaVuSans-79" x="457.394531"/>
      <use xlink:href="#DejaVuSans-20" x="516.574219"/>
      <use xlink:href="#DejaVuSans-28" x="548.361328"/>
      <use xlink:href="#DejaVuSans-48" x="587.375"/>
      <use xlink:href="#DejaVuSans-7a" x="662.570312"/>
      <use xlink:href="#DejaVuSans-29" x="715.060547"/>
     </g>
    </g>
   </g>
   <g id="matplotlib.axis_2">
    <g id="ytick_1">
     <g id="line2d_9">
      <defs>
       <path id="m1a0f17e449" d="M 0 0 
L -3.5 0 
" style="stroke: #000000; stroke-width: 0.8"/>
      </defs>
      <g>
       <use xlink:href="#m1a0f17e449" x="81" y="308.040502" style="stroke: #000000; stroke-width: 0.8"/>
      </g>
     </g>
     <g id="text_10">
      <!-- 0.00 -->
      <g transform="translate(51.734375 311.839721) scale(0.1 -0.1)">
       <defs>
        <path id="DejaVuSans-2e" d="M 684 794 
L 1344 794 
L 1344 0 
L 684 0 
L 684 794 
z
" transform="scale(0.015625)"/>
       </defs>
       <use xlink:href="#DejaVuSans-30"/>
       <use xlink:href="#DejaVuSans-2e" x="63.623047"/>
       <use xlink:href="#DejaVuSans-30" x="95.410156"/>
       <use xlink:href="#DejaVuSans-30" x="159.033203"/>
      </g>
     </g>
    </g>
    <g id="ytick_2">
     <g id="line2d_10">
      <g>
       <use xlink:href="#m1a0f17e449" x="81" y="270.378242" style="stroke: #000000; stroke-width: 0.8"/>
      </g>
     </g>
     <g id="text_11">
      <!-- 0.25 -->
      <g transform="translate(51.734375 274.17746) scale(0.1 -0.1)">
       <use xlink:href="#DejaVuSans-30"/>
       <use xlink:href="#DejaVuSans-2e" x="63.623047"/>
       <use xlink:href="#DejaVuSans-32" x="95.410156"/>
       <use xlink:href="#DejaVuSans-35" x="159.033203"/>
      </g>
     </g>
    </g>
    <g id="ytick_3">
     <g id="line2d_11">
      <g>
       <use xlink:href="#m1a0f17e449" x="81" y="232.715981" style="stroke: #000000; stroke-width: 0.8"/>
      </g>
     </g>
     <g id="text_12">
      <!-- 0.50 -->
      <g transform="translate(51.734375 236.5152) scale(0.1 -0.1)">
       <use xlink:href="#DejaVuSans-30"/>
       <use xlink:href="#DejaVuSans-2e" x="63.623047"/>
       <use xlink:href="#DejaVuSans-35" x="95.410156"/>
       <use xlink:href="#DejaVuSans-30" x="159.033203"/>
      </g>
     </g>
    </g>
    <g id="ytick_4">
     <g id="line2d_12">
      <g>
       <use xlink:href="#m1a0f17e449" x="81" y="195.05372" style="stroke: #000000; stroke-width: 0.8"/>
      </g>
     </g>
     <g id="text_13">
      <!-- 0.75 -->
      <g transform="translate(51.734375 198.852939) scale(0.1 -0.1)">
       <defs>
        <path id="DejaVuSans-37" d="M 525 4666 
L 3525 4666 
L 3525 4397 
L 1831 0 
L 1172 0 
L 2766 4134 
L 525 4134 
L 525 4666 
z
" transform="scale(0.015625)"/>
       </defs>
       <use xlink:href="#DejaVuSans-30"/>
       <use xlink:href="#DejaVuSans-2e" x="63.623047"/>
       <use xlink:href="#DejaVuSans-37" x="95.410156"/>
       <use xlink:href="#DejaVuSans-35" x="159.033203"/>
      </g>
     </g>
    </g>
    <g id="ytick_5">
     <g id="line2d_13">
      <g>
       <use xlink:href="#m1a0f17e449" x="81" y="157.39146" style="stroke: #000000; stroke-width: 0.8"/>
      </g>
     </g>
     <g id="text_14">
      <!-- 1.00 -->
      <g transform="translate(51.734375 161.190679) scale(0.1 -0.1)">
       <use xlink:href="#DejaVuSans-31"/>
       <use xlink:href="#DejaVuSans-2e" x="63.623047"/>
       <use xlink:href="#DejaVuSans-30" x="95.410156"/>
       <use xlink:href="#DejaVuSans-30" x="159.033203"/>
      </g>
     </g>
    </g>
    <g id="ytick_6">
     <g id="line2d_14">
      <g>
       <use xlink:href="#m1a0f17e449" x="81" y="119.729199" style="stroke: #000000; stroke-width: 0.8"/>
      </g>
     </g>
     <g id="text_15">
      <!-- 1.25 -->
      <g transform="translate(51.734375 123.528418) scale(0.1 -0.1)">
       <use xlink:href="#DejaVuSans-31"/>
       <use xlink:href="#DejaVuSans-2e" x="63.623047"/>
       <use xlink:href="#DejaVuSans-32" x="95.410156"/>
       <use xlink:href="#DejaVuSans-35" x="159.033203"/>
      </g>
     </g>
    </g>
    <g id="ytick_7">
     <g id="line2d_15">
      <g>
       <use xlink:href="#m1a0f17e449" x="81" y="82.066938" style="stroke: #000000; stroke-width: 0.8"/>
      </g>
     </g>
     <g id="text_16">
      <!-- 1.50 -->
      <g transform="translate(51.734375 85.866157) scale(0.1 -0.1)">
       <use xlink:href="#DejaVuSans-31"/>
       <use xlink:href="#DejaVuSans-2e" x="63.623047"/>
       <use xlink:href="#DejaVuSans-35" x="95.410156"/>
       <use xlink:href="#DejaVuSans-30" x="159.033203"/>
      </g>
     </g>
    </g>
    <g id="ytick_8">
     <g id="line2d_16">
      <g>
       <use xlink:href="#m1a0f17e449" x="81" y="44.404678" style="stroke: #000000; stroke-width: 0.8"/>
      </g>
     </g>
     <g id="text_17">
      <!-- 1.75 -->
      <g transform="translate(51.734375 48.203897) scale(0.1 -0.1)">
       <use xlink:href="#DejaVuSans-31"/>
       <use xlink:href="#DejaVuSans-2e" x="63.623047"/>
       <use xlink:href="#DejaVuSans-37" x="95.410156"/>
       <use xlink:href="#DejaVuSans-35" x="159.033203"/>
      </g>
     </g>
    </g>
    <g id="text_18">
     <!-- $\frac{ \mathrm{Measured \ Pressure \ Amplitude}}{\mathrm{Forward\ Pressure\ Wave\ Amplitude}}$ -->
     <g transform="translate(38.774375 279.8) rotate(-90) scale(0.16 -0.16)">
      <defs>
       <path id="DejaVuSans-4d" d="M 628 4666 
L 1569 4666 
L 2759 1491 
L 3956 4666 
L 4897 4666 
L 4897 0 
L 4281 0 
L 4281 4097 
L 3078 897 
L 2444 897 
L 1241 4097 
L 1241 0 
L 628 0 
L 628 4666 
z
" transform="scale(0.015625)"/>
       <path id="DejaVuSans-61" d="M 2194 1759 
Q 1497 1759 1228 1600 
Q 959 1441 959 1056 
Q 959 750 1161 570 
Q 1363 391 1709 391 
Q 2188 391 2477 730 
Q 2766 1069 2766 1631 
L 2766 1759 
L 2194 1759 
z
M 3341 1997 
L 3341 0 
L 2766 0 
L 2766 531 
Q 2569 213 2275 61 
Q 1981 -91 1556 -91 
Q 1019 -91 701 211 
Q 384 513 384 1019 
Q 384 1609 779 1909 
Q 1175 2209 1959 2209 
L 2766 2209 
L 2766 2266 
Q 2766 2663 2505 2880 
Q 2244 3097 1772 3097 
Q 1472 3097 1187 3025 
Q 903 2953 641 2809 
L 641 3341 
Q 956 3463 1253 3523 
Q 1550 3584 1831 3584 
Q 2591 3584 2966 3190 
Q 3341 2797 3341 1997 
z
" transform="scale(0.015625)"/>
       <path id="DejaVuSans-73" d="M 2834 3397 
L 2834 2853 
Q 2591 2978 2328 3040 
Q 2066 3103 1784 3103 
Q 1356 3103 1142 2972 
Q 928 2841 928 2578 
Q 928 2378 1081 2264 
Q 1234 2150 1697 2047 
L 1894 2003 
Q 2506 1872 2764 1633 
Q 3022 1394 3022 966 
Q 3022 478 2636 193 
Q 2250 -91 1575 -91 
Q 1294 -91 989 -36 
Q 684 19 347 128 
L 347 722 
Q 666 556 975 473 
Q 1284 391 1588 391 
Q 1994 391 2212 530 
Q 2431 669 2431 922 
Q 2431 1156 2273 1281 
Q 2116 1406 1581 1522 
L 1381 1569 
Q 847 1681 609 1914 
Q 372 2147 372 2553 
Q 372 3047 722 3315 
Q 1072 3584 1716 3584 
Q 2034 3584 2315 3537 
Q 2597 3491 2834 3397 
z
" transform="scale(0.015625)"/>
       <path id="DejaVuSans-64" d="M 2906 2969 
L 2906 4863 
L 3481 4863 
L 3481 0 
L 2906 0 
L 2906 525 
Q 2725 213 2448 61 
Q 2172 -91 1784 -91 
Q 1150 -91 751 415 
Q 353 922 353 1747 
Q 353 2572 751 3078 
Q 1150 3584 1784 3584 
Q 2172 3584 2448 3432 
Q 2725 3281 2906 2969 
z
M 947 1747 
Q 947 1113 1208 752 
Q 1469 391 1925 391 
Q 2381 391 2643 752 
Q 2906 1113 2906 1747 
Q 2906 2381 2643 2742 
Q 2381 3103 1925 3103 
Q 1469 3103 1208 2742 
Q 947 2381 947 1747 
z
" transform="scale(0.015625)"/>
       <path id="DejaVuSans-50" d="M 1259 4147 
L 1259 2394 
L 2053 2394 
Q 2494 2394 2734 2622 
Q 2975 2850 2975 3272 
Q 2975 3691 2734 3919 
Q 2494 4147 2053 4147 
L 1259 4147 
z
M 628 4666 
L 2053 4666 
Q 2838 4666 3239 4311 
Q 3641 3956 3641 3272 
Q 3641 2581 3239 2228 
Q 2838 1875 2053 1875 
L 1259 1875 
L 1259 0 
L 628 0 
L 628 4666 
z
" transform="scale(0.015625)"/>
       <path id="DejaVuSans-41" d="M 2188 4044 
L 1331 1722 
L 3047 1722 
L 2188 4044 
z
M 1831 4666 
L 2547 4666 
L 4325 0 
L 3669 0 
L 3244 1197 
L 1141 1197 
L 716 0 
L 50 0 
L 1831 4666 
z
" transform="scale(0.015625)"/>
       <path id="DejaVuSans-6d" d="M 3328 2828 
Q 3544 3216 3844 3400 
Q 4144 3584 4550 3584 
Q 5097 3584 5394 3201 
Q 5691 2819 5691 2113 
L 5691 0 
L 5113 0 
L 5113 2094 
Q 5113 2597 4934 2840 
Q 4756 3084 4391 3084 
Q 3944 3084 3684 2787 
Q 3425 2491 3425 1978 
L 3425 0 
L 2847 0 
L 2847 2094 
Q 2847 2600 2669 2842 
Q 2491 3084 2119 3084 
Q 1678 3084 1418 2786 
Q 1159 2488 1159 1978 
L 1159 0 
L 581 0 
L 581 3500 
L 1159 3500 
L 1159 2956 
Q 1356 3278 1631 3431 
Q 1906 3584 2284 3584 
Q 2666 3584 2933 3390 
Q 3200 3197 3328 2828 
z
" transform="scale(0.015625)"/>
       <path id="DejaVuSans-70" d="M 1159 525 
L 1159 -1331 
L 581 -1331 
L 581 3500 
L 1159 3500 
L 1159 2969 
Q 1341 3281 1617 3432 
Q 1894 3584 2278 3584 
Q 2916 3584 3314 3078 
Q 3713 2572 3713 1747 
Q 3713 922 3314 415 
Q 2916 -91 2278 -91 
Q 1894 -91 1617 61 
Q 1341 213 1159 525 
z
M 3116 1747 
Q 3116 2381 2855 2742 
Q 2594 3103 2138 3103 
Q 1681 3103 1420 2742 
Q 1159 2381 1159 1747 
Q 1159 1113 1420 752 
Q 1681 391 2138 391 
Q 2594 391 2855 752 
Q 3116 1113 3116 1747 
z
" transform="scale(0.015625)"/>
       <path id="DejaVuSans-6c" d="M 603 4863 
L 1178 4863 
L 1178 0 
L 603 0 
L 603 4863 
z
" transform="scale(0.015625)"/>
       <path id="DejaVuSans-69" d="M 603 3500 
L 1178 3500 
L 1178 0 
L 603 0 
L 603 3500 
z
M 603 4863 
L 1178 4863 
L 1178 4134 
L 603 4134 
L 603 4863 
z
" transform="scale(0.015625)"/>
       <path id="DejaVuSans-74" d="M 1172 4494 
L 1172 3500 
L 2356 3500 
L 2356 3053 
L 1172 3053 
L 1172 1153 
Q 1172 725 1289 603 
Q 1406 481 1766 481 
L 2356 481 
L 2356 0 
L 1766 0 
Q 1100 0 847 248 
Q 594 497 594 1153 
L 594 3053 
L 172 3053 
L 172 3500 
L 594 3500 
L 594 4494 
L 1172 4494 
z
" transform="scale(0.015625)"/>
       <path id="DejaVuSans-6f" d="M 1959 3097 
Q 1497 3097 1228 2736 
Q 959 2375 959 1747 
Q 959 1119 1226 758 
Q 1494 397 1959 397 
Q 2419 397 2687 759 
Q 2956 1122 2956 1747 
Q 2956 2369 2687 2733 
Q 2419 3097 1959 3097 
z
M 1959 3584 
Q 2709 3584 3137 3096 
Q 3566 2609 3566 1747 
Q 3566 888 3137 398 
Q 2709 -91 1959 -91 
Q 1206 -91 779 398 
Q 353 888 353 1747 
Q 353 2609 779 3096 
Q 1206 3584 1959 3584 
z
" transform="scale(0.015625)"/>
       <path id="DejaVuSans-77" d="M 269 3500 
L 844 3500 
L 1563 769 
L 2278 3500 
L 2956 3500 
L 3675 769 
L 4391 3500 
L 4966 3500 
L 4050 0 
L 3372 0 
L 2619 2869 
L 1863 0 
L 1184 0 
L 269 3500 
z
" transform="scale(0.015625)"/>
       <path id="DejaVuSans-57" d="M 213 4666 
L 850 4666 
L 1831 722 
L 2809 4666 
L 3519 4666 
L 4500 722 
L 5478 4666 
L 6119 4666 
L 4947 0 
L 4153 0 
L 3169 4050 
L 2175 0 
L 1381 0 
L 213 4666 
z
" transform="scale(0.015625)"/>
       <path id="DejaVuSans-76" d="M 191 3500 
L 800 3500 
L 1894 563 
L 2988 3500 
L 3597 3500 
L 2284 0 
L 1503 0 
L 191 3500 
z
" transform="scale(0.015625)"/>
      </defs>
      <use xlink:href="#DejaVuSans-4d" transform="translate(81 58.810938) scale(0.7)"/>
      <use xlink:href="#DejaVuSans-65" transform="translate(141.395508 58.810938) scale(0.7)"/>
      <use xlink:href="#DejaVuSans-61" transform="translate(184.461914 58.810938) scale(0.7)"/>
      <use xlink:href="#DejaVuSans-73" transform="translate(227.357422 58.810938) scale(0.7)"/>
      <use xlink:href="#DejaVuSans-75" transform="translate(263.827148 58.810938) scale(0.7)"/>
      <use xlink:href="#DejaVuSans-72" transform="translate(308.192383 58.810938) scale(0.7)"/>
      <use xlink:href="#DejaVuSans-65" transform="translate(336.97168 58.810938) scale(0.7)"/>
      <use xlink:href="#DejaVuSans-64" transform="translate(380.038086 58.810938) scale(0.7)"/>
      <use xlink:href="#DejaVuSans-50" transform="translate(447.200945 58.810938) scale(0.7)"/>
      <use xlink:href="#DejaVuSans-72" transform="translate(489.412859 58.810938) scale(0.7)"/>
      <use xlink:href="#DejaVuSans-65" transform="translate(518.192156 58.810938) scale(0.7)"/>
      <use xlink:href="#DejaVuSans-73" transform="translate(561.258562 58.810938) scale(0.7)"/>
      <use xlink:href="#DejaVuSans-73" transform="translate(597.728288 58.810938) scale(0.7)"/>
      <use xlink:href="#DejaVuSans-75" transform="translate(634.198015 58.810938) scale(0.7)"/>
      <use xlink:href="#DejaVuSans-72" transform="translate(678.563249 58.810938) scale(0.7)"/>
      <use xlink:href="#DejaVuSans-65" transform="translate(707.342546 58.810938) scale(0.7)"/>
      <use xlink:href="#DejaVuSans-41" transform="translate(773.138217 58.810938) scale(0.7)"/>
      <use xlink:href="#DejaVuSans-6d" transform="translate(821.023959 58.810938) scale(0.7)"/>
      <use xlink:href="#DejaVuSans-70" transform="translate(889.212436 58.810938) scale(0.7)"/>
      <use xlink:href="#DejaVuSans-6c" transform="translate(933.64603 58.810938) scale(0.7)"/>
      <use xlink:href="#DejaVuSans-69" transform="translate(953.094272 58.810938) scale(0.7)"/>
      <use xlink:href="#DejaVuSans-74" transform="translate(972.542514 58.810938) scale(0.7)"/>
      <use xlink:href="#DejaVuSans-75" transform="translate(999.988803 58.810938) scale(0.7)"/>
      <use xlink:href="#DejaVuSans-64" transform="translate(1044.354038 58.810938) scale(0.7)"/>
      <use xlink:href="#DejaVuSans-65" transform="translate(1088.787631 58.810938) scale(0.7)"/>
      <use xlink:href="#DejaVuSans-46" transform="translate(0 -40.185937) scale(0.7)"/>
      <use xlink:href="#DejaVuSans-6f" transform="translate(40.263672 -40.185937) scale(0.7)"/>
      <use xlink:href="#DejaVuSans-72" transform="translate(83.09082 -40.185937) scale(0.7)"/>
      <use xlink:href="#DejaVuSans-77" transform="translate(111.870117 -40.185937) scale(0.7)"/>
      <use xlink:href="#DejaVuSans-61" transform="translate(169.121094 -40.185937) scale(0.7)"/>
      <use xlink:href="#DejaVuSans-72" transform="translate(212.016602 -40.185937) scale(0.7)"/>
      <use xlink:href="#DejaVuSans-64" transform="translate(240.795898 -40.185937) scale(0.7)"/>
      <use xlink:href="#DejaVuSans-50" transform="translate(307.958757 -40.185937) scale(0.7)"/>
      <use xlink:href="#DejaVuSans-72" transform="translate(350.170671 -40.185937) scale(0.7)"/>
      <use xlink:href="#DejaVuSans-65" transform="translate(378.949968 -40.185937) scale(0.7)"/>
      <use xlink:href="#DejaVuSans-73" transform="translate(422.016374 -40.185937) scale(0.7)"/>
      <use xlink:href="#DejaVuSans-73" transform="translate(458.486101 -40.185937) scale(0.7)"/>
      <use xlink:href="#DejaVuSans-75" transform="translate(494.955827 -40.185937) scale(0.7)"/>
      <use xlink:href="#DejaVuSans-72" transform="translate(539.321062 -40.185937) scale(0.7)"/>
      <use xlink:href="#DejaVuSans-65" transform="translate(568.100359 -40.185937) scale(0.7)"/>
      <use xlink:href="#DejaVuSans-57" transform="translate(633.89603 -40.185937) scale(0.7)"/>
      <use xlink:href="#DejaVuSans-61" transform="translate(703.109897 -40.185937) scale(0.7)"/>
      <use xlink:href="#DejaVuSans-76" transform="translate(746.005405 -40.185937) scale(0.7)"/>
      <use xlink:href="#DejaVuSans-65" transform="translate(787.431186 -40.185937) scale(0.7)"/>
      <use xlink:href="#DejaVuSans-41" transform="translate(853.226857 -40.185937) scale(0.7)"/>
      <use xlink:href="#DejaVuSans-6d" transform="translate(901.112599 -40.185937) scale(0.7)"/>
      <use xlink:href="#DejaVuSans-70" transform="translate(969.301076 -40.185937) scale(0.7)"/>
      <use xlink:href="#DejaVuSans-6c" transform="translate(1013.73467 -40.185937) scale(0.7)"/>
      <use xlink:href="#DejaVuSans-69" transform="translate(1033.182912 -40.185937) scale(0.7)"/>
      <use xlink:href="#DejaVuSans-74" transform="translate(1052.631154 -40.185937) scale(0.7)"/>
      <use xlink:href="#DejaVuSans-75" transform="translate(1080.077443 -40.185937) scale(0.7)"/>
      <use xlink:href="#DejaVuSans-64" transform="translate(1124.442677 -40.185937) scale(0.7)"/>
      <use xlink:href="#DejaVuSans-65" transform="translate(1168.876271 -40.185937) scale(0.7)"/>
      <path d="M 0 19.253125 
L 0 25.503125 
L 1211.942677 25.503125 
L 1211.942677 19.253125 
L 0 19.253125 
z
"/>
     </g>
    </g>
   </g>
   <g id="line2d_17">
    <path d="M 103.827273 124.258978 
L 122.107371 139.903421 
L 141.758477 157.023864 
L 164.151597 176.838852 
L 221.276904 227.564532 
L 232.701966 237.294409 
L 241.385012 244.414448 
L 248.697052 250.137585 
L 255.095086 254.863585 
L 260.579115 258.639312 
L 265.14914 261.541281 
L 269.262162 263.922375 
L 273.375184 266.045077 
L 277.031204 267.681192 
L 280.230221 268.894346 
L 283.429238 269.882927 
L 286.628256 270.629072 
L 289.827273 271.118148 
L 292.569287 271.32496 
L 295.311302 271.332285 
L 298.053317 271.140271 
L 300.795332 270.752329 
L 303.994349 270.060811 
L 307.193366 269.125928 
L 310.392383 267.965539 
L 314.048403 266.388768 
L 317.704423 264.574133 
L 321.817445 262.285715 
L 326.387469 259.482816 
L 331.414496 256.138781 
L 337.355528 251.906031 
L 344.210565 246.733054 
L 352.436609 240.230072 
L 362.947666 231.610196 
L 377.571744 219.29862 
L 421.44398 182.192302 
L 436.525061 169.814144 
L 449.778133 159.212563 
L 462.117199 149.615309 
L 473.999263 140.652693 
L 485.424324 132.317167 
L 496.392383 124.595142 
L 506.90344 117.468435 
L 516.957494 110.915372 
L 527.011548 104.632073 
L 536.6086 98.896143 
L 546.205651 93.42508 
L 555.3457 88.468615 
L 560.372727 85.850811 
L 560.372727 85.850811 
" clip-path="url(#pb28ca48ed9)" style="fill: none; stroke: #1f77b4; stroke-width: 1.5; stroke-linecap: square"/>
   </g>
   <g id="line2d_18">
    <path d="M 103.827273 113.278043 
L 115.252334 122.479206 
L 127.134398 132.338201 
L 139.016462 142.483155 
L 151.355528 153.306808 
L 164.151597 164.82186 
L 177.861671 177.458342 
L 192.942752 191.669156 
L 210.308845 208.350218 
L 258.294103 254.655841 
L 266.520147 262.149708 
L 272.918182 267.681265 
L 277.945209 271.747839 
L 282.058231 274.816831 
L 285.714251 277.285721 
L 288.913268 279.192463 
L 291.655283 280.597839 
L 294.397297 281.755112 
L 296.68231 282.505026 
L 298.967322 283.040729 
L 301.252334 283.348105 
L 303.537346 283.418502 
L 305.822359 283.249876 
L 308.107371 282.847069 
L 310.392383 282.221155 
L 312.677396 281.388024 
L 315.41941 280.141526 
L 318.161425 278.658962 
L 321.360442 276.676657 
L 325.016462 274.138273 
L 329.129484 271.008742 
L 334.156511 266.887554 
L 340.097543 261.716475 
L 347.409582 255.052512 
L 357.463636 245.563807 
L 373.00172 230.55014 
L 406.819902 197.820904 
L 422.357985 183.128733 
L 436.068059 170.462694 
L 448.864128 158.942242 
L 460.746192 148.539315 
L 472.171253 138.830691 
L 483.139312 129.803399 
L 493.650369 121.439493 
L 503.704423 113.71718 
L 513.758477 106.280039 
L 523.355528 99.458508 
L 532.495577 93.22353 
L 541.635627 87.252583 
L 550.775676 81.55381 
L 559.458722 76.399126 
L 560.372727 75.871483 
L 560.372727 75.871483 
" clip-path="url(#pb28ca48ed9)" style="fill: none; stroke: #d62728; stroke-opacity: 0.2; stroke-width: 1.5; stroke-linecap: square"/>
   </g>
   <g id="line2d_19">
    <path d="M 103.827273 87.931216 
L 111.139312 93.523282 
L 118.908354 99.747821 
L 127.134398 106.630954 
L 135.817445 114.197361 
L 144.957494 122.470161 
L 154.554545 131.470669 
L 164.6086 141.218026 
L 175.119656 151.728736 
L 186.087715 163.016102 
L 197.512776 175.089586 
L 209.851843 188.454704 
L 223.104914 203.14349 
L 237.728993 219.697843 
L 253.724079 238.148841 
L 272.461179 260.115132 
L 298.053317 290.494633 
L 310.392383 305.0142 
L 311.763391 306.370257 
L 312.220393 306.676659 
L 312.677396 306.804761 
L 313.134398 306.702344 
L 314.048403 306.013765 
L 315.876413 304.053063 
L 321.360442 297.624383 
L 365.689681 245.207504 
L 383.055774 225.106917 
L 398.593857 207.45808 
L 412.760934 191.701815 
L 426.014005 177.296785 
L 438.353071 164.211424 
L 450.235135 151.937598 
L 461.660197 140.463623 
L 472.628256 129.772744 
L 483.139312 119.843932 
L 493.193366 110.652627 
L 502.790418 102.171433 
L 512.387469 93.988004 
L 521.527518 86.481723 
L 530.667568 79.265712 
L 539.350614 72.687815 
L 548.033661 66.387884 
L 556.259705 60.682553 
L 560.372727 57.927762 
L 560.372727 57.927762 
" clip-path="url(#pb28ca48ed9)" style="fill: none; stroke: #d62728; stroke-opacity: 0.466667; stroke-width: 1.5; stroke-linecap: square"/>
   </g>
   <g id="line2d_20">
    <path d="M 103.827273 88.882844 
L 111.596314 94.989447 
L 119.822359 101.735161 
L 128.505405 109.147548 
L 137.645455 117.252687 
L 147.242506 126.074865 
L 157.29656 135.636188 
L 167.807617 145.956099 
L 178.775676 157.050826 
L 190.200737 168.932745 
L 202.082801 181.609696 
L 214.87887 195.58888 
L 228.588943 210.89774 
L 243.670025 228.075099 
L 260.579115 247.675889 
L 281.144226 271.870141 
L 310.392383 306.339599 
L 311.306388 306.993409 
L 311.763391 306.997148 
L 312.220393 306.746501 
L 313.134398 305.889441 
L 315.876413 302.774621 
L 328.672482 287.609628 
L 356.549631 254.672648 
L 375.286732 232.875217 
L 391.281818 214.593676 
L 405.905897 198.208009 
L 419.615971 183.181953 
L 432.412039 169.49023 
L 444.294103 157.095216 
L 455.719165 145.492309 
L 466.687224 134.666486 
L 477.19828 124.598347 
L 487.252334 115.264855 
L 497.306388 106.236472 
L 506.90344 97.916044 
L 516.043489 90.273055 
L 525.183538 82.914452 
L 534.323587 75.849713 
L 543.006634 69.418691 
L 551.689681 63.268558 
L 559.915725 57.707693 
L 560.372727 57.406453 
L 560.372727 57.406453 
" clip-path="url(#pb28ca48ed9)" style="fill: none; stroke: #d62728; stroke-opacity: 0.733333; stroke-width: 1.5; stroke-linecap: square"/>
   </g>
   <g id="line2d_21">
    <path d="M 103.827273 90.566821 
L 112.967322 98.238495 
L 122.564373 106.585841 
L 132.618428 115.638506 
L 142.672482 124.991944 
L 153.183538 135.076025 
L 164.151597 145.912902 
L 175.576658 157.521083 
L 187.458722 169.914708 
L 199.797789 183.102775 
L 213.05086 197.593212 
L 227.217936 213.412113 
L 242.75602 231.095741 
L 260.579115 251.726957 
L 282.058231 276.944618 
L 308.107371 307.8 
L 308.564373 307.734209 
L 353.350614 254.880365 
L 372.544717 232.642523 
L 388.996806 213.920948 
L 403.620885 197.609607 
L 417.330958 182.649863 
L 430.127027 169.016653 
L 442.009091 156.672766 
L 453.434152 145.115908 
L 464.402211 134.331276 
L 474.913268 124.299733 
L 484.967322 114.998534 
L 495.021376 105.999734 
L 504.618428 97.704976 
L 514.215479 89.710353 
L 523.355528 82.385873 
L 532.495577 75.35339 
L 541.178624 68.951262 
L 549.861671 62.828304 
L 558.087715 57.291588 
L 560.372727 55.8 
L 560.372727 55.8 
" clip-path="url(#pb28ca48ed9)" style="fill: none; stroke: #d62728; stroke-width: 1.5; stroke-linecap: square"/>
   </g>
   <g id="patch_3">
    <path d="M 81 320.4 
L 81 43.2 
" style="fill: none; stroke: #000000; stroke-width: 0.8; stroke-linejoin: miter; stroke-linecap: square"/>
   </g>
   <g id="patch_4">
    <path d="M 583.2 320.4 
L 583.2 43.2 
" style="fill: none; stroke: #000000; stroke-width: 0.8; stroke-linejoin: miter; stroke-linecap: square"/>
   </g>
   <g id="patch_5">
    <path d="M 81 320.4 
L 583.2 320.4 
" style="fill: none; stroke: #000000; stroke-width: 0.8; stroke-linejoin: miter; stroke-linecap: square"/>
   </g>
   <g id="patch_6">
    <path d="M 81 43.2 
L 583.2 43.2 
" style="fill: none; stroke: #000000; stroke-width: 0.8; stroke-linejoin: miter; stroke-linecap: square"/>
   </g>
   <g id="text_19">
    <!-- Modelled acoustic reflectometry response with changing effusion level -->
    <g transform="translate(49.36875 37.2) scale(0.16 -0.16)">
     <defs>
      <path id="DejaVuSans-66" d="M 2375 4863 
L 2375 4384 
L 1825 4384 
Q 1516 4384 1395 4259 
Q 1275 4134 1275 3809 
L 1275 3500 
L 2222 3500 
L 2222 3053 
L 1275 3053 
L 1275 0 
L 697 0 
L 697 3053 
L 147 3053 
L 147 3500 
L 697 3500 
L 697 3744 
Q 697 4328 969 4595 
Q 1241 4863 1831 4863 
L 2375 4863 
z
" transform="scale(0.015625)"/>
      <path id="DejaVuSans-68" d="M 3513 2113 
L 3513 0 
L 2938 0 
L 2938 2094 
Q 2938 2591 2744 2837 
Q 2550 3084 2163 3084 
Q 1697 3084 1428 2787 
Q 1159 2491 1159 1978 
L 1159 0 
L 581 0 
L 581 4863 
L 1159 4863 
L 1159 2956 
Q 1366 3272 1645 3428 
Q 1925 3584 2291 3584 
Q 2894 3584 3203 3211 
Q 3513 2838 3513 2113 
z
" transform="scale(0.015625)"/>
      <path id="DejaVuSans-67" d="M 2906 1791 
Q 2906 2416 2648 2759 
Q 2391 3103 1925 3103 
Q 1463 3103 1205 2759 
Q 947 2416 947 1791 
Q 947 1169 1205 825 
Q 1463 481 1925 481 
Q 2391 481 2648 825 
Q 2906 1169 2906 1791 
z
M 3481 434 
Q 3481 -459 3084 -895 
Q 2688 -1331 1869 -1331 
Q 1566 -1331 1297 -1286 
Q 1028 -1241 775 -1147 
L 775 -588 
Q 1028 -725 1275 -790 
Q 1522 -856 1778 -856 
Q 2344 -856 2625 -561 
Q 2906 -266 2906 331 
L 2906 616 
Q 2728 306 2450 153 
Q 2172 0 1784 0 
Q 1141 0 747 490 
Q 353 981 353 1791 
Q 353 2603 747 3093 
Q 1141 3584 1784 3584 
Q 2172 3584 2450 3431 
Q 2728 3278 2906 2969 
L 2906 3500 
L 3481 3500 
L 3481 434 
z
" transform="scale(0.015625)"/>
     </defs>
     <use xlink:href="#DejaVuSans-4d"/>
     <use xlink:href="#DejaVuSans-6f" x="86.279297"/>
     <use xlink:href="#DejaVuSans-64" x="147.460938"/>
     <use xlink:href="#DejaVuSans-65" x="210.9375"/>
     <use xlink:href="#DejaVuSans-6c" x="272.460938"/>
     <use xlink:href="#DejaVuSans-6c" x="300.244141"/>
     <use xlink:href="#DejaVuSans-65" x="328.027344"/>
     <use xlink:href="#DejaVuSans-64" x="389.550781"/>
     <use xlink:href="#DejaVuSans-20" x="453.027344"/>
     <use xlink:href="#DejaVuSans-61" x="484.814453"/>
     <use xlink:href="#DejaVuSans-63" x="546.09375"/>
     <use xlink:href="#DejaVuSans-6f" x="601.074219"/>
     <use xlink:href="#DejaVuSans-75" x="662.255859"/>
     <use xlink:href="#DejaVuSans-73" x="725.634766"/>
     <use xlink:href="#DejaVuSans-74" x="777.734375"/>
     <use xlink:href="#DejaVuSans-69" x="816.943359"/>
     <use xlink:href="#DejaVuSans-63" x="844.726562"/>
     <use xlink:href="#DejaVuSans-20" x="899.707031"/>
     <use xlink:href="#DejaVuSans-72" x="931.494141"/>
     <use xlink:href="#DejaVuSans-65" x="970.357422"/>
     <use xlink:href="#DejaVuSans-66" x="1031.880859"/>
     <use xlink:href="#DejaVuSans-6c" x="1067.085938"/>
     <use xlink:href="#DejaVuSans-65" x="1094.869141"/>
     <use xlink:href="#DejaVuSans-63" x="1156.392578"/>
     <use xlink:href="#DejaVuSans-74" x="1211.373047"/>
     <use xlink:href="#DejaVuSans-6f" x="1250.582031"/>
     <use xlink:href="#DejaVuSans-6d" x="1311.763672"/>
     <use xlink:href="#DejaVuSans-65" x="1409.175781"/>
     <use xlink:href="#DejaVuSans-74" x="1470.699219"/>
     <use xlink:href="#DejaVuSans-72" x="1509.908203"/>
     <use xlink:href="#DejaVuSans-79" x="1551.021484"/>
     <use xlink:href="#DejaVuSans-20" x="1610.201172"/>
     <use xlink:href="#DejaVuSans-72" x="1641.988281"/>
     <use xlink:href="#DejaVuSans-65" x="1680.851562"/>
     <use xlink:href="#DejaVuSans-73" x="1742.375"/>
     <use xlink:href="#DejaVuSans-70" x="1794.474609"/>
     <use xlink:href="#DejaVuSans-6f" x="1857.951172"/>
     <use xlink:href="#DejaVuSans-6e" x="1919.132812"/>
     <use xlink:href="#DejaVuSans-73" x="1982.511719"/>
     <use xlink:href="#DejaVuSans-65" x="2034.611328"/>
     <use xlink:href="#DejaVuSans-20" x="2096.134766"/>
     <use xlink:href="#DejaVuSans-77" x="2127.921875"/>
     <use xlink:href="#DejaVuSans-69" x="2209.708984"/>
     <use xlink:href="#DejaVuSans-74" x="2237.492188"/>
     <use xlink:href="#DejaVuSans-68" x="2276.701172"/>
     <use xlink:href="#DejaVuSans-20" x="2340.080078"/>
     <use xlink:href="#DejaVuSans-63" x="2371.867188"/>
     <use xlink:href="#DejaVuSans-68" x="2426.847656"/>
     <use xlink:href="#DejaVuSans-61" x="2490.226562"/>
     <use xlink:href="#DejaVuSans-6e" x="2551.505859"/>
     <use xlink:href="#DejaVuSans-67" x="2614.884766"/>
     <use xlink:href="#DejaVuSans-69" x="2678.361328"/>
     <use xlink:href="#DejaVuSans-6e" x="2706.144531"/>
     <use xlink:href="#DejaVuSans-67" x="2769.523438"/>
     <use xlink:href="#DejaVuSans-20" x="2833"/>
     <use xlink:href="#DejaVuSans-65" x="2864.787109"/>
     <use xlink:href="#DejaVuSans-66" x="2926.310547"/>
     <use xlink:href="#DejaVuSans-66" x="2961.515625"/>
     <use xlink:href="#DejaVuSans-75" x="2996.720703"/>
     <use xlink:href="#DejaVuSans-73" x="3060.099609"/>
     <use xlink:href="#DejaVuSans-69" x="3112.199219"/>
     <use xlink:href="#DejaVuSans-6f" x="3139.982422"/>
     <use xlink:href="#DejaVuSans-6e" x="3201.164062"/>
     <use xlink:href="#DejaVuSans-20" x="3264.542969"/>
     <use xlink:href="#DejaVuSans-6c" x="3296.330078"/>
     <use xlink:href="#DejaVuSans-65" x="3324.113281"/>
     <use xlink:href="#DejaVuSans-76" x="3385.636719"/>
     <use xlink:href="#DejaVuSans-65" x="3444.816406"/>
     <use xlink:href="#DejaVuSans-6c" x="3506.339844"/>
    </g>
   </g>
   <g id="legend_1">
    <g id="patch_7">
     <path d="M 410.593125 314.4 
L 574.8 314.4 
Q 577.2 314.4 577.2 312 
L 577.2 225.13125 
Q 577.2 222.73125 574.8 222.73125 
L 410.593125 222.73125 
Q 408.193125 222.73125 408.193125 225.13125 
L 408.193125 312 
Q 408.193125 314.4 410.593125 314.4 
z
" style="fill: #ffffff; opacity: 0.8; stroke: #cccccc; stroke-linejoin: miter"/>
    </g>
    <g id="line2d_22">
     <path d="M 412.993125 232.449375 
L 424.993125 232.449375 
L 436.993125 232.449375 
" style="fill: none; stroke: #1f77b4; stroke-width: 1.5; stroke-linecap: square"/>
    </g>
    <g id="text_20">
     <!-- 0% effused (healthy) -->
     <g transform="translate(446.593125 236.649375) scale(0.12 -0.12)">
      <defs>
       <path id="DejaVuSans-25" d="M 4653 2053 
Q 4381 2053 4226 1822 
Q 4072 1591 4072 1178 
Q 4072 772 4226 539 
Q 4381 306 4653 306 
Q 4919 306 5073 539 
Q 5228 772 5228 1178 
Q 5228 1588 5073 1820 
Q 4919 2053 4653 2053 
z
M 4653 2450 
Q 5147 2450 5437 2106 
Q 5728 1763 5728 1178 
Q 5728 594 5436 251 
Q 5144 -91 4653 -91 
Q 4153 -91 3862 251 
Q 3572 594 3572 1178 
Q 3572 1766 3864 2108 
Q 4156 2450 4653 2450 
z
M 1428 4353 
Q 1159 4353 1004 4120 
Q 850 3888 850 3481 
Q 850 3069 1003 2837 
Q 1156 2606 1428 2606 
Q 1700 2606 1854 2837 
Q 2009 3069 2009 3481 
Q 2009 3884 1853 4118 
Q 1697 4353 1428 4353 
z
M 4250 4750 
L 4750 4750 
L 1831 -91 
L 1331 -91 
L 4250 4750 
z
M 1428 4750 
Q 1922 4750 2215 4408 
Q 2509 4066 2509 3481 
Q 2509 2891 2217 2550 
Q 1925 2209 1428 2209 
Q 931 2209 642 2551 
Q 353 2894 353 3481 
Q 353 4063 643 4406 
Q 934 4750 1428 4750 
z
" transform="scale(0.015625)"/>
      </defs>
      <use xlink:href="#DejaVuSans-30"/>
      <use xlink:href="#DejaVuSans-25" x="63.623047"/>
      <use xlink:href="#DejaVuSans-20" x="158.642578"/>
      <use xlink:href="#DejaVuSans-65" x="190.429688"/>
      <use xlink:href="#DejaVuSans-66" x="251.953125"/>
      <use xlink:href="#DejaVuSans-66" x="287.158203"/>
      <use xlink:href="#DejaVuSans-75" x="322.363281"/>
      <use xlink:href="#DejaVuSans-73" x="385.742188"/>
      <use xlink:href="#DejaVuSans-65" x="437.841797"/>
      <use xlink:href="#DejaVuSans-64" x="499.365234"/>
      <use xlink:href="#DejaVuSans-20" x="562.841797"/>
      <use xlink:href="#DejaVuSans-28" x="594.628906"/>
      <use xlink:href="#DejaVuSans-68" x="633.642578"/>
      <use xlink:href="#DejaVuSans-65" x="697.021484"/>
      <use xlink:href="#DejaVuSans-61" x="758.544922"/>
      <use xlink:href="#DejaVuSans-6c" x="819.824219"/>
      <use xlink:href="#DejaVuSans-74" x="847.607422"/>
      <use xlink:href="#DejaVuSans-68" x="886.816406"/>
      <use xlink:href="#DejaVuSans-79" x="950.195312"/>
      <use xlink:href="#DejaVuSans-29" x="1009.375"/>
     </g>
    </g>
    <g id="line2d_23">
     <path d="M 412.993125 250.063125 
L 424.993125 250.063125 
L 436.993125 250.063125 
" style="fill: none; stroke: #d62728; stroke-opacity: 0.2; stroke-width: 1.5; stroke-linecap: square"/>
    </g>
    <g id="text_21">
     <!-- 25% effused -->
     <g transform="translate(446.593125 254.263125) scale(0.12 -0.12)">
      <use xlink:href="#DejaVuSans-32"/>
      <use xlink:href="#DejaVuSans-35" x="63.623047"/>
      <use xlink:href="#DejaVuSans-25" x="127.246094"/>
      <use xlink:href="#DejaVuSans-20" x="222.265625"/>
      <use xlink:href="#DejaVuSans-65" x="254.052734"/>
      <use xlink:href="#DejaVuSans-66" x="315.576172"/>
      <use xlink:href="#DejaVuSans-66" x="350.78125"/>
      <use xlink:href="#DejaVuSans-75" x="385.986328"/>
      <use xlink:href="#DejaVuSans-73" x="449.365234"/>
      <use xlink:href="#DejaVuSans-65" x="501.464844"/>
      <use xlink:href="#DejaVuSans-64" x="562.988281"/>
     </g>
    </g>
    <g id="line2d_24">
     <path d="M 412.993125 267.676875 
L 424.993125 267.676875 
L 436.993125 267.676875 
" style="fill: none; stroke: #d62728; stroke-opacity: 0.466667; stroke-width: 1.5; stroke-linecap: square"/>
    </g>
    <g id="text_22">
     <!-- 50% effused -->
     <g transform="translate(446.593125 271.876875) scale(0.12 -0.12)">
      <use xlink:href="#DejaVuSans-35"/>
      <use xlink:href="#DejaVuSans-30" x="63.623047"/>
      <use xlink:href="#DejaVuSans-25" x="127.246094"/>
      <use xlink:href="#DejaVuSans-20" x="222.265625"/>
      <use xlink:href="#DejaVuSans-65" x="254.052734"/>
      <use xlink:href="#DejaVuSans-66" x="315.576172"/>
      <use xlink:href="#DejaVuSans-66" x="350.78125"/>
      <use xlink:href="#DejaVuSans-75" x="385.986328"/>
      <use xlink:href="#DejaVuSans-73" x="449.365234"/>
      <use xlink:href="#DejaVuSans-65" x="501.464844"/>
      <use xlink:href="#DejaVuSans-64" x="562.988281"/>
     </g>
    </g>
    <g id="line2d_25">
     <path d="M 412.993125 285.290625 
L 424.993125 285.290625 
L 436.993125 285.290625 
" style="fill: none; stroke: #d62728; stroke-opacity: 0.733333; stroke-width: 1.5; stroke-linecap: square"/>
    </g>
    <g id="text_23">
     <!-- 70% effused -->
     <g transform="translate(446.593125 289.490625) scale(0.12 -0.12)">
      <use xlink:href="#DejaVuSans-37"/>
      <use xlink:href="#DejaVuSans-30" x="63.623047"/>
      <use xlink:href="#DejaVuSans-25" x="127.246094"/>
      <use xlink:href="#DejaVuSans-20" x="222.265625"/>
      <use xlink:href="#DejaVuSans-65" x="254.052734"/>
      <use xlink:href="#DejaVuSans-66" x="315.576172"/>
      <use xlink:href="#DejaVuSans-66" x="350.78125"/>
      <use xlink:href="#DejaVuSans-75" x="385.986328"/>
      <use xlink:href="#DejaVuSans-73" x="449.365234"/>
      <use xlink:href="#DejaVuSans-65" x="501.464844"/>
      <use xlink:href="#DejaVuSans-64" x="562.988281"/>
     </g>
    </g>
    <g id="line2d_26">
     <path d="M 412.993125 302.904375 
L 424.993125 302.904375 
L 436.993125 302.904375 
" style="fill: none; stroke: #d62728; stroke-width: 1.5; stroke-linecap: square"/>
    </g>
    <g id="text_24">
     <!-- 100% effused -->
     <g transform="translate(446.593125 307.104375) scale(0.12 -0.12)">
      <use xlink:href="#DejaVuSans-31"/>
      <use xlink:href="#DejaVuSans-30" x="63.623047"/>
      <use xlink:href="#DejaVuSans-30" x="127.246094"/>
      <use xlink:href="#DejaVuSans-25" x="190.869141"/>
      <use xlink:href="#DejaVuSans-20" x="285.888672"/>
      <use xlink:href="#DejaVuSans-65" x="317.675781"/>
      <use xlink:href="#DejaVuSans-66" x="379.199219"/>
      <use xlink:href="#DejaVuSans-66" x="414.404297"/>
      <use xlink:href="#DejaVuSans-75" x="449.609375"/>
      <use xlink:href="#DejaVuSans-73" x="512.988281"/>
      <use xlink:href="#DejaVuSans-65" x="565.087891"/>
      <use xlink:href="#DejaVuSans-64" x="626.611328"/>
     </g>
    </g>
   </g>
  </g>
 </g>
 <defs>
  <clipPath id="pb28ca48ed9">
   <rect x="81" y="43.2" width="502.2" height="277.2"/>
  </clipPath>
 </defs>
</svg>
